<svg width="8" height="8" viewBox="0 0 8 8" fill="none" xmlns="http://www.w3.org/2000/svg">
<path fill-rule="evenodd" clip-rule="evenodd" d="M-1.53017e-07 3.99999C-1.58814e-07 3.86739 0.0526784 3.74021 0.146447 3.64644C0.240215 3.55267 0.367392 3.49999 0.5 3.49999L6.293 3.49999L4.146 1.35399C4.09951 1.30751 4.06264 1.25232 4.03748 1.19158C4.01232 1.13084 3.99937 1.06574 3.99937 0.999994C3.99937 0.93425 4.01232 0.86915 4.03748 0.80841C4.06264 0.74767 4.09951 0.692481 4.146 0.645994C4.19249 0.599506 4.24768 0.562629 4.30842 0.53747C4.36916 0.512311 4.43426 0.499362 4.5 0.499362C4.56574 0.499362 4.63084 0.512311 4.69158 0.53747C4.75232 0.562629 4.80751 0.599506 4.854 0.645993L7.854 3.64599C7.90056 3.69244 7.93751 3.74761 7.96271 3.80836C7.98792 3.86911 8.00089 3.93423 8.00089 3.99999C8.00089 4.06576 7.98792 4.13088 7.96271 4.19163C7.93751 4.25237 7.90056 4.30755 7.854 4.35399L4.854 7.35399C4.80751 7.40048 4.75232 7.43736 4.69158 7.46252C4.63084 7.48768 4.56574 7.50063 4.5 7.50063C4.43426 7.50063 4.36916 7.48768 4.30842 7.46252C4.24768 7.43736 4.19249 7.40048 4.146 7.35399C4.05211 7.26011 3.99937 7.13277 3.99937 6.99999C3.99937 6.93425 4.01232 6.86915 4.03748 6.80841C4.06264 6.74767 4.09951 6.69248 4.146 6.64599L6.293 4.49999L0.5 4.49999C0.367392 4.49999 0.240215 4.44732 0.146447 4.35355C0.0526784 4.25978 -1.47221e-07 4.1326 -1.53017e-07 3.99999Z" fill="#1D1E21" fill-opacity="0.7"/>
</svg>
