<svg width="25" height="20" viewBox="0 0 25 20" fill="none" xmlns="http://www.w3.org/2000/svg">
<path d="M25 12.5V14.375C25 15.0664 24.4414 15.625 23.75 15.625H22.4492C22.1523 17.3984 20.6094 18.75 18.75 18.75C16.8906 18.75 15.3477 17.3984 15.0508 15.625H9.94922C9.65234 17.3984 8.10938 18.75 6.25 18.75C4.39062 18.75 2.84922 17.3984 2.55195 15.625H1.25C0.559766 15.625 0 15.0664 0 14.375V10C0 8.94141 0.656641 8.03906 1.58438 7.67188L3.21094 3.60742C3.78047 2.18359 5.16016 1.25 6.69141 1.25H13.7969C14.9375 1.25 15.9805 1.76797 16.7266 2.65742L20.6328 7.53906C23.0938 7.81641 25 9.95312 25 12.4648V12.5ZM6.69141 3.75C6.17969 3.75 5.72266 4.02734 5.53125 4.53516L4.34766 7.5H8.75V3.75H6.69141ZM10.625 7.5H17.3984L14.7734 4.21875C14.5391 3.92188 14.1445 3.75 13.7969 3.75H10.625V7.5ZM20.5195 15.625C20.5859 15.3945 20.625 15.2188 20.625 15C20.625 13.9648 19.7852 13.125 18.75 13.125C17.7148 13.125 16.875 13.9648 16.875 15C16.875 15.2188 16.8789 15.3945 16.9805 15.625C17.2383 16.3516 17.9336 16.875 18.75 16.875C19.5664 16.875 20.2617 16.3516 20.5195 15.625ZM8.01953 15.625C8.08594 15.3945 8.125 15.2188 8.125 15C8.125 13.9648 7.28516 13.125 6.25 13.125C5.21484 13.125 4.375 13.9648 4.375 15C4.375 15.2188 4.37891 15.3945 4.48047 15.625C4.73828 16.3516 5.43359 16.875 6.25 16.875C7.06641 16.875 7.76172 16.3516 8.01953 15.625Z" fill="#3083FF"/>
</svg>
