<svg width="21" height="20" viewBox="0 0 21 20" fill="none" xmlns="http://www.w3.org/2000/svg">
<path d="M12.8738 0C13.5715 0 14.1351 0.559766 14.1351 1.25V2.50586C15.6565 2.59023 16.9848 3.57383 17.4932 5.01172L18.8806 8.9375C19.795 9.3125 20.4414 10.207 20.4414 11.25V18.75C20.4414 19.4414 19.8778 20 19.1802 20H17.9189C17.2213 20 16.6576 19.4414 16.6576 18.75V16.875H4.04501V18.75C4.04501 19.4414 3.48139 20 2.78375 20H1.52249C0.826039 20 0.26123 19.4414 0.26123 18.75V11.25C0.26123 10.207 0.90605 9.3125 1.82244 8.9375L3.20943 5.01172C3.71788 3.57383 5.04614 2.59023 6.56754 2.50586V1.25C6.56754 0.559766 7.13116 0 7.8288 0H12.8738ZM6.78038 5C6.24434 5 5.76742 5.33594 5.59006 5.83594L4.56134 8.75H16.1413L15.1126 5.83594C14.9352 5.33594 14.4583 5 13.9223 5H6.78038ZM4.04501 13.75C4.74265 13.75 5.30628 13.1914 5.30628 12.5C5.30628 11.8086 4.74265 11.25 4.04501 11.25C3.34738 11.25 2.78375 11.8086 2.78375 12.5C2.78375 13.1914 3.34738 13.75 4.04501 13.75ZM16.6576 11.25C15.96 11.25 15.3964 11.8086 15.3964 12.5C15.3964 13.1914 15.96 13.75 16.6576 13.75C17.3553 13.75 17.9189 13.1914 17.9189 12.5C17.9189 11.8086 17.3553 11.25 16.6576 11.25Z" fill="white"/>
</svg>
