<svg width="18" height="18" viewBox="0 0 18 18" fill="none" xmlns="http://www.w3.org/2000/svg">
<path d="M9 10.875V16.125M16.5 2.7V8.25H1.5V2.7C1.5 2.58065 1.54741 2.46619 1.6318 2.3818C1.71619 2.29741 1.83065 2.25 1.95 2.25H16.05C16.1693 2.25 16.2838 2.29741 16.3682 2.3818C16.4526 2.46619 16.5 2.58065 16.5 2.7V2.7ZM13.5 5.25H14.25H13.5ZM1.5 8.25L2.0925 10.188C2.1863 10.4952 2.37626 10.7642 2.63441 10.9554C2.89256 11.1466 3.20526 11.2499 3.5265 11.25H4.5L1.5 8.25ZM16.5 8.25L15.9075 10.188C15.8137 10.4952 15.6237 10.7642 15.3656 10.9554C15.1074 11.1466 14.7947 11.2499 14.4735 11.25H13.5L16.5 8.25ZM7.125 10.875C7.125 10.875 7.125 16.125 4.5 16.125L7.125 10.875ZM10.875 10.875C10.875 10.875 10.875 16.125 13.5 16.125L10.875 10.875Z" stroke="#3083FF" stroke-opacity="0.7" stroke-width="1.5" stroke-linecap="round" stroke-linejoin="round"/>
</svg>
