<svg width="18" height="18" viewBox="0 0 18 18" fill="none" xmlns="http://www.w3.org/2000/svg">
<path d="M0 15.8594C0 16.7651 0.839844 17.5 1.875 17.5H15.625C16.6602 17.5 17.5 16.7651 17.5 15.8594V6.5625H0V15.8594ZM12.5 9.16016C12.5 8.93457 12.7109 8.75 12.9688 8.75H14.5312C14.7891 8.75 15 8.93457 15 9.16016V10.5273C15 10.7529 14.7891 10.9375 14.5312 10.9375H12.9688C12.7109 10.9375 12.5 10.7529 12.5 10.5273V9.16016ZM12.5 13.5352C12.5 13.3096 12.7109 13.125 12.9688 13.125H14.5312C14.7891 13.125 15 13.3096 15 13.5352V14.9023C15 15.1279 14.7891 15.3125 14.5312 15.3125H12.9688C12.7109 15.3125 12.5 15.1279 12.5 14.9023V13.5352ZM7.5 9.16016C7.5 8.93457 7.71094 8.75 7.96875 8.75H9.53125C9.78906 8.75 10 8.93457 10 9.16016V10.5273C10 10.7529 9.78906 10.9375 9.53125 10.9375H7.96875C7.71094 10.9375 7.5 10.7529 7.5 10.5273V9.16016ZM7.5 13.5352C7.5 13.3096 7.71094 13.125 7.96875 13.125H9.53125C9.78906 13.125 10 13.3096 10 13.5352V14.9023C10 15.1279 9.78906 15.3125 9.53125 15.3125H7.96875C7.71094 15.3125 7.5 15.1279 7.5 14.9023V13.5352ZM2.5 9.16016C2.5 8.93457 2.71094 8.75 2.96875 8.75H4.53125C4.78906 8.75 5 8.93457 5 9.16016V10.5273C5 10.7529 4.78906 10.9375 4.53125 10.9375H2.96875C2.71094 10.9375 2.5 10.7529 2.5 10.5273V9.16016ZM2.5 13.5352C2.5 13.3096 2.71094 13.125 2.96875 13.125H4.53125C4.78906 13.125 5 13.3096 5 13.5352V14.9023C5 15.1279 4.78906 15.3125 4.53125 15.3125H2.96875C2.71094 15.3125 2.5 15.1279 2.5 14.9023V13.5352ZM15.625 2.1875H13.75V0.546875C13.75 0.246094 13.4688 0 13.125 0H11.875C11.5312 0 11.25 0.246094 11.25 0.546875V2.1875H6.25V0.546875C6.25 0.246094 5.96875 0 5.625 0H4.375C4.03125 0 3.75 0.246094 3.75 0.546875V2.1875H1.875C0.839844 2.1875 0 2.92236 0 3.82812V5.46875H17.5V3.82812C17.5 2.92236 16.6602 2.1875 15.625 2.1875Z" fill="black" fill-opacity="0.7"/>
</svg>
