<svg width="137" height="33" viewBox="0 0 137 33" fill="none" xmlns="http://www.w3.org/2000/svg">
<path d="M0 29.1615C5.24211 29.1615 9.49164 24.9119 9.49164 19.6699C9.49164 14.4278 5.24211 10.1782 0 10.1782V16.8223C1.57262 16.8223 2.84748 18.0972 2.84748 19.6699C2.84748 21.2425 1.57262 22.5174 0 22.5174V29.1615Z" fill="#0056D8"/>
<path d="M31.6384 13.3423C30.0164 12.8285 28.2891 12.5513 26.497 12.5513C17.1049 12.5513 9.49121 20.1651 9.49121 29.5571C9.49121 30.4999 9.56792 31.4247 9.7154 32.3256H20.2817C19.9045 31.4799 19.6948 30.5431 19.6948 29.5571C19.6948 25.8003 22.7402 22.7548 26.497 22.7548C28.5504 22.7548 30.3911 23.6645 31.6384 25.1029V13.3423Z" fill="#7AAFFF"/>
<path d="M1.66895 0.686523C2.45587 7.80518 8.49112 13.3421 15.8195 13.3421C23.1479 13.3421 29.1832 7.80518 29.97 0.686523H19.7882C19.1596 2.26231 17.6195 3.37581 15.8195 3.37581C14.0194 3.37581 12.4795 2.26231 11.8508 0.686523H1.66895Z" fill="#3083FF"/>
<path d="M55.327 10.9695H49.815V26.6865H45.902V10.9695H40.39V7.82352H55.327V10.9695ZM58.2477 23.1505C58.5857 23.5405 58.9497 23.8135 59.3397 23.9695C59.7384 24.1255 60.1631 24.2035 60.6137 24.2035C61.0471 24.2035 61.4414 24.1212 61.7967 23.9565C62.1521 23.7919 62.4554 23.5362 62.7067 23.1895C62.9667 22.8342 63.1661 22.3835 63.3047 21.8375C63.4434 21.2915 63.5127 20.6415 63.5127 19.8875C63.5127 19.1422 63.4521 18.5095 63.3307 17.9895C63.2181 17.4695 63.0534 17.0492 62.8367 16.7285C62.6287 16.4079 62.3731 16.1782 62.0697 16.0395C61.7664 15.8922 61.4284 15.8185 61.0557 15.8185C60.4231 15.8185 59.8901 15.9442 59.4567 16.1955C59.0321 16.4382 58.6291 16.7979 58.2477 17.2745V23.1505ZM58.0397 15.0385C58.3084 14.7439 58.5944 14.4752 58.8977 14.2325C59.2011 13.9812 59.5261 13.7689 59.8727 13.5955C60.2194 13.4135 60.5921 13.2749 60.9907 13.1795C61.3894 13.0755 61.8227 13.0235 62.2907 13.0235C63.0101 13.0235 63.6687 13.1795 64.2667 13.4915C64.8734 13.7949 65.3934 14.2412 65.8267 14.8305C66.2601 15.4112 66.5981 16.1262 66.8407 16.9755C67.0834 17.8249 67.2047 18.7955 67.2047 19.8875C67.2047 20.8929 67.0661 21.8245 66.7887 22.6825C66.5201 23.5319 66.1344 24.2685 65.6317 24.8925C65.1291 25.5165 64.5224 26.0062 63.8117 26.3615C63.1097 26.7082 62.3254 26.8815 61.4587 26.8815C60.7307 26.8815 60.1111 26.7732 59.5997 26.5565C59.0971 26.3399 58.6464 26.0452 58.2477 25.6725V31.0155H54.6597V13.2835H56.8697C57.3204 13.2835 57.6194 13.4915 57.7667 13.9075L58.0397 15.0385ZM76.5203 21.0835C75.6449 21.1269 74.9169 21.2049 74.3363 21.3175C73.7556 21.4215 73.2919 21.5602 72.9453 21.7335C72.6073 21.9069 72.3646 22.1062 72.2173 22.3315C72.0786 22.5482 72.0093 22.7865 72.0093 23.0465C72.0093 23.5665 72.1523 23.9349 72.4383 24.1515C72.7329 24.3682 73.1403 24.4765 73.6603 24.4765C74.2583 24.4765 74.7739 24.3725 75.2073 24.1645C75.6493 23.9479 76.0869 23.6142 76.5203 23.1635V21.0835ZM69.2143 15.1425C70.0029 14.4319 70.8739 13.9032 71.8273 13.5565C72.7806 13.2012 73.8119 13.0235 74.9213 13.0235C75.7186 13.0235 76.4293 13.1535 77.0533 13.4135C77.6859 13.6735 78.2189 14.0375 78.6523 14.5055C79.0943 14.9649 79.4323 15.5152 79.6663 16.1565C79.9003 16.7979 80.0173 17.4999 80.0173 18.2625V26.6865H78.3793C78.0413 26.6865 77.7813 26.6389 77.5993 26.5435C77.4259 26.4482 77.2829 26.2489 77.1703 25.9455L76.8843 25.0875C76.5463 25.3822 76.2169 25.6422 75.8963 25.8675C75.5843 26.0929 75.2593 26.2835 74.9213 26.4395C74.5833 26.5869 74.2193 26.6995 73.8293 26.7775C73.4479 26.8555 73.0189 26.8945 72.5423 26.8945C71.9529 26.8945 71.4156 26.8165 70.9303 26.6605C70.4449 26.5045 70.0246 26.2749 69.6693 25.9715C69.3226 25.6595 69.0539 25.2739 68.8633 24.8145C68.6726 24.3552 68.5773 23.8265 68.5773 23.2285C68.5773 22.7345 68.7029 22.2405 68.9543 21.7465C69.2056 21.2525 69.6346 20.8062 70.2413 20.4075C70.8566 20.0002 71.6713 19.6665 72.6853 19.4065C73.7079 19.1379 74.9863 18.9862 76.5203 18.9515V18.2625C76.5203 17.4219 76.3426 16.8065 75.9873 16.4165C75.6319 16.0179 75.1206 15.8185 74.4533 15.8185C73.9593 15.8185 73.5476 15.8792 73.2183 16.0005C72.8889 16.1132 72.5986 16.2389 72.3473 16.3775C72.1046 16.5075 71.8749 16.6332 71.6583 16.7545C71.4416 16.8672 71.1903 16.9235 70.9043 16.9235C70.6529 16.9235 70.4406 16.8629 70.2673 16.7415C70.1026 16.6115 69.9639 16.4599 69.8513 16.2865L69.2143 15.1425ZM94.7129 13.2835V26.6865H91.1379V20.8755H86.4059V26.6865H82.8179V13.2835H86.4059V18.2625H91.1379V13.2835H94.7129ZM96.9428 14.7655C97.4628 14.2629 98.0998 13.8555 98.8538 13.5435C99.6078 13.2315 100.518 13.0755 101.584 13.0755C102.416 13.0755 103.157 13.1752 103.807 13.3745C104.466 13.5739 105.02 13.8425 105.471 14.1805C105.922 14.5099 106.264 14.8955 106.498 15.3375C106.732 15.7709 106.849 16.2259 106.849 16.7025C106.849 16.9539 106.81 17.2139 106.732 17.4825C106.663 17.7512 106.546 18.0155 106.381 18.2755C106.216 18.5269 106 18.7652 105.731 18.9905C105.462 19.2159 105.129 19.4065 104.73 19.5625C105.432 19.8399 106 20.2429 106.433 20.7715C106.875 21.3002 107.096 21.9632 107.096 22.7605C107.096 23.4192 106.94 24.0042 106.628 24.5155C106.325 25.0269 105.922 25.4602 105.419 25.8155C104.916 26.1622 104.34 26.4265 103.69 26.6085C103.049 26.7905 102.39 26.8815 101.714 26.8815C101.341 26.8815 100.934 26.8469 100.492 26.7775C100.059 26.7169 99.6165 26.6042 99.1658 26.4395C98.7152 26.2662 98.2645 26.0365 97.8138 25.7505C97.3718 25.4559 96.9602 25.0875 96.5788 24.6455L97.6188 23.3455C97.7748 23.1375 97.9915 23.0335 98.2688 23.0335C98.4855 23.0335 98.6848 23.0942 98.8668 23.2155C99.0488 23.3369 99.2525 23.4712 99.4778 23.6185C99.7118 23.7659 99.9848 23.9002 100.297 24.0215C100.609 24.1429 100.999 24.2035 101.467 24.2035C102.212 24.2035 102.767 24.0389 103.131 23.7095C103.504 23.3802 103.69 22.9642 103.69 22.4615C103.69 21.9675 103.495 21.5819 103.105 21.3045C102.715 21.0272 102.074 20.8885 101.181 20.8885H99.6728V18.6135H101.181C101.97 18.6135 102.568 18.4792 102.975 18.2105C103.391 17.9419 103.599 17.5822 103.599 17.1315C103.599 16.7155 103.417 16.3819 103.053 16.1305C102.689 15.8792 102.165 15.7535 101.48 15.7535C101.038 15.7535 100.665 15.8012 100.362 15.8965C100.059 15.9832 99.7942 16.0785 99.5688 16.1825C99.3522 16.2865 99.1615 16.3862 98.9968 16.4815C98.8408 16.5682 98.6892 16.6115 98.5418 16.6115C98.3772 16.6115 98.2342 16.5812 98.1128 16.5205C98.0002 16.4599 97.8788 16.3255 97.7488 16.1175L96.9428 14.7655ZM121.699 13.2835V26.6865H118.111V19.3155C118.111 19.1162 118.12 18.8909 118.137 18.6395C118.163 18.3795 118.198 18.1239 118.241 17.8725C118.042 18.3059 117.838 18.6742 117.63 18.9775C117.613 18.9949 117.535 19.1075 117.396 19.3155C117.258 19.5235 117.076 19.7922 116.85 20.1215C116.625 20.4422 116.369 20.8062 116.083 21.2135C115.806 21.6209 115.52 22.0369 115.225 22.4615C114.541 23.4495 113.765 24.5719 112.898 25.8285C112.829 25.9325 112.747 26.0365 112.651 26.1405C112.565 26.2359 112.465 26.3269 112.352 26.4135C112.248 26.5002 112.136 26.5695 112.014 26.6215C111.893 26.6735 111.763 26.6995 111.624 26.6995H109.427V13.2965H113.015V20.6675C113.015 20.8755 113.002 21.1095 112.976 21.3695C112.95 21.6295 112.916 21.8852 112.872 22.1365C112.976 21.9112 113.08 21.7032 113.184 21.5125C113.288 21.3219 113.392 21.1529 113.496 21.0055C113.505 20.9882 113.579 20.8755 113.717 20.6675C113.865 20.4595 114.051 20.1952 114.276 19.8745C114.502 19.5452 114.753 19.1769 115.03 18.7695C115.316 18.3622 115.607 17.9462 115.901 17.5215C116.586 16.5335 117.366 15.4112 118.241 14.1545C118.371 13.9465 118.545 13.7515 118.761 13.5695C118.987 13.3789 119.238 13.2835 119.515 13.2835H121.699ZM136.335 15.8965H131.707V26.6865H128.119V15.8965H123.491V13.2835H136.335V15.8965Z" fill="white"/>
</svg>
