<svg width="160" height="54" viewBox="0 0 160 54" fill="none" xmlns="http://www.w3.org/2000/svg">
<rect width="160" height="54" rx="8" fill="#0A0A09"/>
<g clip-path="url(#clip0_1_467)">
<path d="M30.6513 31.5849C34.2016 29.6334 36.893 28.1465 37.125 28.0308C37.8671 27.6358 38.6335 26.5902 37.125 25.778C36.6379 25.5226 34.0156 24.0819 30.6513 22.224L25.9873 26.9391L30.6513 31.5847V31.5849Z" fill="#FFD900"/>
<path d="M25.9873 26.9391L11.1367 41.9219C11.4853 41.9681 11.8788 41.8756 12.3428 41.6203C13.3169 41.0865 23.6432 35.4414 30.6513 31.5859L25.9873 26.9391Z" fill="#F43249"/>
<path d="M25.9875 26.9391L30.6514 22.2472C30.6514 22.2472 13.3875 12.8157 12.3429 12.2589C11.9494 12.0256 11.5084 11.9563 11.1138 12.0256L25.9875 26.9391Z" fill="#00EE76"/>
<path d="M25.9875 26.9391L11.1138 12.0256C10.5101 12.1653 10 12.6992 10 13.791V40.1565C10 41.1558 10.3947 41.8756 11.1368 41.945L25.9875 26.9391Z" fill="#00D3FF"/>
</g>
<path d="M50.6 10.206C50.924 9.918 51.3 9.698 51.728 9.546C52.156 9.394 52.642 9.318 53.186 9.318C53.63 9.318 54.028 9.372 54.38 9.48C54.736 9.588 55.038 9.74 55.286 9.936C55.534 10.132 55.724 10.364 55.856 10.632C55.992 10.9 56.06 11.194 56.06 11.514C56.06 11.946 55.952 12.326 55.736 12.654C55.524 12.982 55.224 13.236 54.836 13.416C55.056 13.508 55.256 13.622 55.436 13.758C55.616 13.89 55.77 14.04 55.898 14.208C56.03 14.376 56.13 14.56 56.198 14.76C56.27 14.96 56.306 15.17 56.306 15.39C56.306 15.766 56.236 16.118 56.096 16.446C55.956 16.774 55.752 17.06 55.484 17.304C55.22 17.544 54.894 17.734 54.506 17.874C54.118 18.014 53.676 18.084 53.18 18.084C52.564 18.084 52.01 17.984 51.518 17.784C51.026 17.58 50.604 17.306 50.252 16.962L50.588 16.41C50.62 16.366 50.66 16.33 50.708 16.302C50.756 16.27 50.808 16.254 50.864 16.254C50.948 16.254 51.048 16.3 51.164 16.392C51.28 16.48 51.428 16.578 51.608 16.686C51.788 16.794 52.006 16.894 52.262 16.986C52.522 17.074 52.838 17.118 53.21 17.118C53.526 17.118 53.808 17.08 54.056 17.004C54.308 16.928 54.518 16.818 54.686 16.674C54.858 16.53 54.988 16.354 55.076 16.146C55.168 15.938 55.214 15.704 55.214 15.444C55.214 15.22 55.17 15.014 55.082 14.826C54.998 14.638 54.874 14.478 54.71 14.346C54.546 14.21 54.346 14.106 54.11 14.034C53.874 13.958 53.608 13.92 53.312 13.92H52.136V12.966H53.264C53.508 12.966 53.734 12.936 53.942 12.876C54.154 12.816 54.334 12.728 54.482 12.612C54.634 12.496 54.752 12.354 54.836 12.186C54.924 12.018 54.968 11.826 54.968 11.61C54.968 11.414 54.928 11.234 54.848 11.07C54.768 10.906 54.652 10.766 54.5 10.65C54.348 10.53 54.162 10.438 53.942 10.374C53.722 10.31 53.472 10.278 53.192 10.278C52.868 10.278 52.592 10.312 52.364 10.38C52.136 10.448 51.944 10.524 51.788 10.608C51.632 10.688 51.504 10.762 51.404 10.83C51.308 10.898 51.224 10.932 51.152 10.932C51.088 10.932 51.036 10.918 50.996 10.89C50.956 10.862 50.918 10.816 50.882 10.752L50.6 10.206ZM60.9486 15.264C60.4566 15.28 60.0366 15.32 59.6886 15.384C59.3446 15.444 59.0626 15.524 58.8426 15.624C58.6266 15.724 58.4686 15.842 58.3686 15.978C58.2726 16.114 58.2246 16.266 58.2246 16.434C58.2246 16.594 58.2506 16.732 58.3026 16.848C58.3546 16.964 58.4246 17.06 58.5126 17.136C58.6046 17.208 58.7106 17.262 58.8306 17.298C58.9546 17.33 59.0866 17.346 59.2266 17.346C59.4146 17.346 59.5866 17.328 59.7426 17.292C59.8986 17.252 60.0446 17.196 60.1806 17.124C60.3206 17.052 60.4526 16.966 60.5766 16.866C60.7046 16.766 60.8286 16.652 60.9486 16.524V15.264ZM57.4986 12.78C57.8346 12.456 58.1966 12.214 58.5846 12.054C58.9726 11.894 59.4026 11.814 59.8746 11.814C60.2146 11.814 60.5166 11.87 60.7806 11.982C61.0446 12.094 61.2666 12.25 61.4466 12.45C61.6266 12.65 61.7626 12.892 61.8546 13.176C61.9466 13.46 61.9926 13.772 61.9926 14.112V18H61.5186C61.4146 18 61.3346 17.984 61.2786 17.952C61.2226 17.916 61.1786 17.848 61.1466 17.748L61.0266 17.172C60.8666 17.32 60.7106 17.452 60.5586 17.568C60.4066 17.68 60.2466 17.776 60.0786 17.856C59.9106 17.932 59.7306 17.99 59.5386 18.03C59.3506 18.074 59.1406 18.096 58.9086 18.096C58.6726 18.096 58.4506 18.064 58.2426 18C58.0346 17.932 57.8526 17.832 57.6966 17.7C57.5446 17.568 57.4226 17.402 57.3306 17.202C57.2426 16.998 57.1986 16.758 57.1986 16.482C57.1986 16.242 57.2646 16.012 57.3966 15.792C57.5286 15.568 57.7426 15.37 58.0386 15.198C58.3346 15.026 58.7206 14.886 59.1966 14.778C59.6726 14.666 60.2566 14.602 60.9486 14.586V14.112C60.9486 13.64 60.8466 13.284 60.6426 13.044C60.4386 12.8 60.1406 12.678 59.7486 12.678C59.4846 12.678 59.2626 12.712 59.0826 12.78C58.9066 12.844 58.7526 12.918 58.6206 13.002C58.4926 13.082 58.3806 13.156 58.2846 13.224C58.1926 13.288 58.1006 13.32 58.0086 13.32C57.9366 13.32 57.8746 13.302 57.8226 13.266C57.7706 13.226 57.7266 13.178 57.6906 13.122L57.4986 12.78ZM67.5614 12.738H64.6934V18H63.6194V11.922H67.5614V12.738ZM69.6505 16.536C69.8465 16.8 70.0605 16.986 70.2925 17.094C70.5245 17.202 70.7845 17.256 71.0725 17.256C71.6405 17.256 72.0765 17.054 72.3805 16.65C72.6845 16.246 72.8365 15.67 72.8365 14.922C72.8365 14.526 72.8005 14.186 72.7285 13.902C72.6605 13.618 72.5605 13.386 72.4285 13.206C72.2965 13.022 72.1345 12.888 71.9425 12.804C71.7505 12.72 71.5325 12.678 71.2885 12.678C70.9405 12.678 70.6345 12.758 70.3705 12.918C70.1105 13.078 69.8705 13.304 69.6505 13.596V16.536ZM69.5965 12.864C69.8525 12.548 70.1485 12.294 70.4845 12.102C70.8205 11.91 71.2045 11.814 71.6365 11.814C71.9885 11.814 72.3065 11.882 72.5905 12.018C72.8745 12.15 73.1165 12.348 73.3165 12.612C73.5165 12.872 73.6705 13.196 73.7785 13.584C73.8865 13.972 73.9405 14.418 73.9405 14.922C73.9405 15.37 73.8805 15.788 73.7605 16.176C73.6405 16.56 73.4665 16.894 73.2385 17.178C73.0145 17.458 72.7385 17.68 72.4105 17.844C72.0865 18.004 71.7205 18.084 71.3125 18.084C70.9405 18.084 70.6205 18.022 70.3525 17.898C70.0885 17.77 69.8545 17.594 69.6505 17.37V20.058H68.5765V11.922H69.2185C69.3705 11.922 69.4645 11.996 69.5005 12.144L69.5965 12.864ZM80.3713 11.922L76.9813 19.794C76.9453 19.874 76.8993 19.938 76.8433 19.986C76.7913 20.034 76.7093 20.058 76.5973 20.058H75.8053L76.9153 17.646L74.4073 11.922H75.3313C75.4233 11.922 75.4953 11.946 75.5473 11.994C75.6033 12.038 75.6413 12.088 75.6613 12.144L77.2873 15.972C77.3513 16.14 77.4053 16.316 77.4492 16.5C77.5053 16.312 77.5653 16.134 77.6293 15.966L79.2073 12.144C79.2313 12.08 79.2713 12.028 79.3273 11.988C79.3873 11.944 79.4533 11.922 79.5253 11.922H80.3713ZM80.8839 12.546C81.1119 12.33 81.3879 12.156 81.7119 12.024C82.0399 11.892 82.4339 11.826 82.8939 11.826C83.2619 11.826 83.5859 11.872 83.8659 11.964C84.1459 12.052 84.3799 12.17 84.5679 12.318C84.7599 12.466 84.9039 12.636 84.9999 12.828C85.0999 13.016 85.1499 13.212 85.1499 13.416C85.1499 13.536 85.1299 13.662 85.0899 13.794C85.0539 13.926 84.9919 14.052 84.9039 14.172C84.8159 14.292 84.7019 14.404 84.5619 14.508C84.4219 14.612 84.2479 14.696 84.0399 14.76C84.4279 14.876 84.7319 15.062 84.9519 15.318C85.1759 15.574 85.2879 15.888 85.2879 16.26C85.2879 16.54 85.2239 16.794 85.0959 17.022C84.9679 17.246 84.7959 17.438 84.5799 17.598C84.3639 17.754 84.1119 17.874 83.8239 17.958C83.5399 18.042 83.2419 18.084 82.9299 18.084C82.7339 18.084 82.5339 18.066 82.3299 18.03C82.1299 17.994 81.9339 17.938 81.7419 17.862C81.5499 17.782 81.3679 17.684 81.1959 17.568C81.0279 17.452 80.8779 17.312 80.7459 17.148L81.0459 16.758C81.0939 16.69 81.1619 16.656 81.2499 16.656C81.3219 16.656 81.3979 16.688 81.4779 16.752C81.5619 16.812 81.6639 16.88 81.7839 16.956C81.9039 17.032 82.0499 17.102 82.2219 17.166C82.3979 17.226 82.6119 17.256 82.8639 17.256C83.0839 17.256 83.2799 17.23 83.4519 17.178C83.6279 17.122 83.7759 17.046 83.8959 16.95C84.0159 16.854 84.1079 16.74 84.1719 16.608C84.2359 16.476 84.2679 16.332 84.2679 16.176C84.2679 15.876 84.1419 15.634 83.8899 15.45C83.6419 15.266 83.2639 15.174 82.7559 15.174H82.0659V14.466H82.7559C82.9759 14.466 83.1739 14.444 83.3499 14.4C83.5259 14.352 83.6759 14.288 83.7999 14.208C83.9239 14.128 84.0179 14.032 84.0819 13.92C84.1459 13.804 84.1779 13.68 84.1779 13.548C84.1779 13.428 84.1499 13.314 84.0939 13.206C84.0419 13.098 83.9599 13.004 83.8479 12.924C83.7399 12.844 83.6039 12.78 83.4399 12.732C83.2759 12.684 83.0839 12.66 82.8639 12.66C82.6239 12.66 82.4199 12.684 82.2519 12.732C82.0879 12.78 81.9479 12.832 81.8319 12.888C81.7199 12.944 81.6279 12.996 81.5559 13.044C81.4839 13.092 81.4219 13.116 81.3699 13.116C81.3179 13.116 81.2739 13.106 81.2379 13.086C81.2059 13.066 81.1699 13.024 81.1299 12.96L80.8839 12.546ZM91.8725 11.922V18H90.8045V13.872C90.8045 13.792 90.8085 13.706 90.8165 13.614C90.8245 13.522 90.8345 13.43 90.8465 13.338C90.8105 13.418 90.7745 13.492 90.7385 13.56C90.7025 13.628 90.6645 13.69 90.6245 13.746L87.6905 17.736C87.6465 17.8 87.5905 17.862 87.5225 17.922C87.4585 17.978 87.3865 18.006 87.3065 18.006H86.6585V11.928H87.7325V16.056C87.7325 16.132 87.7285 16.216 87.7205 16.308C87.7125 16.396 87.7025 16.486 87.6905 16.578C87.7265 16.502 87.7625 16.432 87.7985 16.368C87.8345 16.3 87.8705 16.238 87.9065 16.182L90.8405 12.192C90.8845 12.128 90.9405 12.068 91.0085 12.012C91.0765 11.952 91.1505 11.922 91.2305 11.922H91.8725ZM98.6128 12.738H96.2788V18H95.2108V12.738H92.8768V11.922H98.6128V12.738ZM103.453 14.298C103.453 14.05 103.417 13.824 103.345 13.62C103.277 13.412 103.175 13.234 103.039 13.086C102.907 12.934 102.745 12.818 102.553 12.738C102.361 12.654 102.143 12.612 101.899 12.612C101.387 12.612 100.981 12.762 100.681 13.062C100.385 13.358 100.201 13.77 100.129 14.298H103.453ZM104.317 17.148C104.185 17.308 104.027 17.448 103.843 17.568C103.659 17.684 103.461 17.78 103.249 17.856C103.041 17.932 102.825 17.988 102.601 18.024C102.377 18.064 102.155 18.084 101.935 18.084C101.515 18.084 101.127 18.014 100.771 17.874C100.419 17.73 100.113 17.522 99.8531 17.25C99.5971 16.974 99.3971 16.634 99.2531 16.23C99.1091 15.826 99.0371 15.362 99.0371 14.838C99.0371 14.414 99.1011 14.018 99.2291 13.65C99.3611 13.282 99.5491 12.964 99.7931 12.696C100.037 12.424 100.335 12.212 100.687 12.06C101.039 11.904 101.435 11.826 101.875 11.826C102.239 11.826 102.575 11.888 102.883 12.012C103.195 12.132 103.463 12.308 103.687 12.54C103.915 12.768 104.093 13.052 104.221 13.392C104.349 13.728 104.413 14.112 104.413 14.544C104.413 14.712 104.395 14.824 104.359 14.88C104.323 14.936 104.255 14.964 104.155 14.964H100.093C100.105 15.348 100.157 15.682 100.249 15.966C100.345 16.25 100.477 16.488 100.645 16.68C100.813 16.868 101.013 17.01 101.245 17.106C101.477 17.198 101.737 17.244 102.025 17.244C102.293 17.244 102.523 17.214 102.715 17.154C102.911 17.09 103.079 17.022 103.219 16.95C103.359 16.878 103.475 16.812 103.567 16.752C103.663 16.688 103.745 16.656 103.813 16.656C103.901 16.656 103.969 16.69 104.017 16.758L104.317 17.148ZM111.129 17.25C111.529 17.25 111.845 17.158 112.077 16.974C112.309 16.786 112.425 16.53 112.425 16.206C112.425 16.062 112.403 15.932 112.359 15.816C112.315 15.696 112.243 15.592 112.143 15.504C112.043 15.416 111.909 15.348 111.741 15.3C111.577 15.252 111.375 15.228 111.135 15.228H109.821V17.25H111.129ZM109.821 12.642V14.55H110.991C111.167 14.55 111.329 14.526 111.477 14.478C111.629 14.426 111.759 14.356 111.867 14.268C111.975 14.176 112.059 14.068 112.119 13.944C112.179 13.816 112.209 13.676 112.209 13.524C112.209 13.412 112.189 13.304 112.149 13.2C112.109 13.092 112.041 12.998 111.945 12.918C111.849 12.834 111.723 12.768 111.567 12.72C111.411 12.668 111.219 12.642 110.991 12.642H109.821ZM111.021 11.922C111.397 11.922 111.719 11.96 111.987 12.036C112.255 12.112 112.475 12.216 112.647 12.348C112.819 12.476 112.945 12.628 113.025 12.804C113.105 12.98 113.145 13.168 113.145 13.368C113.145 13.5 113.127 13.638 113.091 13.782C113.055 13.926 112.991 14.064 112.899 14.196C112.811 14.328 112.689 14.448 112.533 14.556C112.381 14.66 112.189 14.742 111.957 14.802C112.421 14.882 112.779 15.044 113.031 15.288C113.283 15.528 113.409 15.846 113.409 16.242C113.409 16.538 113.349 16.796 113.229 17.016C113.113 17.232 112.951 17.414 112.743 17.562C112.539 17.71 112.299 17.82 112.023 17.892C111.747 17.964 111.451 18 111.135 18H108.795V11.922H111.021Z" fill="white"/>
<path d="M62.15 34.619V39.749C60.86 40.679 59.36 41.144 57.65 41.144C56.6 41.144 55.649 40.982 54.797 40.658C53.951 40.328 53.228 39.872 52.628 39.29C52.028 38.702 51.566 38.003 51.242 37.193C50.918 36.383 50.756 35.492 50.756 34.52C50.756 33.542 50.912 32.648 51.224 31.838C51.536 31.022 51.983 30.323 52.565 29.741C53.147 29.153 53.849 28.7 54.671 28.382C55.493 28.058 56.417 27.896 57.443 27.896C57.965 27.896 58.448 27.938 58.892 28.022C59.342 28.1 59.759 28.211 60.143 28.355C60.527 28.499 60.881 28.673 61.205 28.877C61.529 29.081 61.826 29.309 62.096 29.561L61.493 30.524C61.397 30.674 61.274 30.767 61.124 30.803C60.974 30.839 60.812 30.803 60.638 30.695C60.464 30.593 60.278 30.485 60.08 30.371C59.888 30.257 59.666 30.152 59.414 30.056C59.162 29.954 58.871 29.873 58.541 29.813C58.211 29.747 57.821 29.714 57.371 29.714C56.687 29.714 56.069 29.828 55.517 30.056C54.971 30.278 54.503 30.599 54.113 31.019C53.723 31.433 53.423 31.937 53.213 32.531C53.003 33.125 52.898 33.788 52.898 34.52C52.898 35.294 53.009 35.987 53.231 36.599C53.453 37.205 53.768 37.721 54.176 38.147C54.584 38.567 55.076 38.888 55.652 39.11C56.234 39.332 56.882 39.443 57.596 39.443C58.13 39.443 58.604 39.386 59.018 39.272C59.438 39.158 59.849 38.999 60.251 38.795V36.221H58.442C58.304 36.221 58.196 36.185 58.118 36.113C58.04 36.035 58.001 35.936 58.001 35.816V34.619H62.15ZM68.1382 31.676C68.8162 31.676 69.4282 31.787 69.9742 32.009C70.5262 32.231 70.9942 32.546 71.3782 32.954C71.7682 33.362 72.0682 33.857 72.2782 34.439C72.4882 35.021 72.5932 35.675 72.5932 36.401C72.5932 37.127 72.4882 37.781 72.2782 38.363C72.0682 38.945 71.7682 39.443 71.3782 39.857C70.9942 40.265 70.5262 40.58 69.9742 40.802C69.4282 41.024 68.8162 41.135 68.1382 41.135C67.4542 41.135 66.8362 41.024 66.2842 40.802C65.7382 40.58 65.2702 40.265 64.8802 39.857C64.4902 39.443 64.1902 38.945 63.9802 38.363C63.7702 37.781 63.6652 37.127 63.6652 36.401C63.6652 35.675 63.7702 35.021 63.9802 34.439C64.1902 33.857 64.4902 33.362 64.8802 32.954C65.2702 32.546 65.7382 32.231 66.2842 32.009C66.8362 31.787 67.4542 31.676 68.1382 31.676ZM68.1382 39.623C68.9662 39.623 69.5812 39.347 69.9832 38.795C70.3912 38.237 70.5952 37.442 70.5952 36.41C70.5952 35.378 70.3912 34.583 69.9832 34.025C69.5812 33.461 68.9662 33.179 68.1382 33.179C67.2982 33.179 66.6742 33.461 66.2662 34.025C65.8582 34.583 65.6542 35.378 65.6542 36.41C65.6542 37.442 65.8582 38.237 66.2662 38.795C66.6742 39.347 67.2982 39.623 68.1382 39.623ZM78.4214 31.676C79.0994 31.676 79.7114 31.787 80.2574 32.009C80.8094 32.231 81.2774 32.546 81.6614 32.954C82.0514 33.362 82.3514 33.857 82.5614 34.439C82.7714 35.021 82.8764 35.675 82.8764 36.401C82.8764 37.127 82.7714 37.781 82.5614 38.363C82.3514 38.945 82.0514 39.443 81.6614 39.857C81.2774 40.265 80.8094 40.58 80.2574 40.802C79.7114 41.024 79.0994 41.135 78.4214 41.135C77.7374 41.135 77.1194 41.024 76.5674 40.802C76.0214 40.58 75.5534 40.265 75.1634 39.857C74.7734 39.443 74.4734 38.945 74.2634 38.363C74.0534 37.781 73.9484 37.127 73.9484 36.401C73.9484 35.675 74.0534 35.021 74.2634 34.439C74.4734 33.857 74.7734 33.362 75.1634 32.954C75.5534 32.546 76.0214 32.231 76.5674 32.009C77.1194 31.787 77.7374 31.676 78.4214 31.676ZM78.4214 39.623C79.2494 39.623 79.8644 39.347 80.2664 38.795C80.6744 38.237 80.8784 37.442 80.8784 36.41C80.8784 35.378 80.6744 34.583 80.2664 34.025C79.8644 33.461 79.2494 33.179 78.4214 33.179C77.5814 33.179 76.9574 33.461 76.5494 34.025C76.1414 34.583 75.9374 35.378 75.9374 36.41C75.9374 37.442 76.1414 38.237 76.5494 38.795C76.9574 39.347 77.5814 39.623 78.4214 39.623ZM87.9413 36.329C88.5413 36.329 88.9913 36.176 89.2913 35.87C89.5913 35.564 89.7413 35.165 89.7413 34.673C89.7413 34.169 89.5913 33.77 89.2913 33.476C88.9913 33.182 88.5413 33.035 87.9413 33.035C87.3473 33.035 86.8973 33.182 86.5913 33.476C86.2913 33.77 86.1413 34.169 86.1413 34.673C86.1413 34.913 86.1803 35.135 86.2583 35.339C86.3363 35.543 86.4503 35.72 86.6003 35.87C86.7503 36.014 86.9363 36.128 87.1583 36.212C87.3863 36.29 87.6473 36.329 87.9413 36.329ZM90.6323 41.45C90.6323 41.246 90.5723 41.084 90.4523 40.964C90.3383 40.838 90.1823 40.742 89.9843 40.676C89.7863 40.604 89.5553 40.553 89.2913 40.523C89.0273 40.487 88.7453 40.463 88.4453 40.451C88.1513 40.433 87.8483 40.418 87.5363 40.406C87.2303 40.388 86.9333 40.358 86.6453 40.316C86.3573 40.466 86.1203 40.646 85.9343 40.856C85.7543 41.066 85.6643 41.309 85.6643 41.585C85.6643 41.765 85.7093 41.933 85.7993 42.089C85.8953 42.245 86.0393 42.38 86.2313 42.494C86.4293 42.608 86.6783 42.698 86.9783 42.764C87.2843 42.83 87.6503 42.863 88.0763 42.863C88.9283 42.863 89.5673 42.731 89.9933 42.467C90.4193 42.203 90.6323 41.864 90.6323 41.45ZM92.5763 32.153V32.873C92.5763 33.113 92.4323 33.26 92.1443 33.314L91.2263 33.467C91.3823 33.815 91.4603 34.202 91.4603 34.628C91.4603 35.078 91.3703 35.486 91.1903 35.852C91.0163 36.218 90.7733 36.53 90.4613 36.788C90.1493 37.046 89.7773 37.244 89.3453 37.382C88.9133 37.52 88.4453 37.589 87.9413 37.589C87.7493 37.589 87.5603 37.58 87.3743 37.562C87.1943 37.538 87.0173 37.508 86.8433 37.472C86.6693 37.574 86.5403 37.682 86.4563 37.796C86.3723 37.91 86.3303 38.027 86.3303 38.147C86.3303 38.345 86.4173 38.492 86.5913 38.588C86.7653 38.684 86.9933 38.753 87.2753 38.795C87.5633 38.837 87.8903 38.864 88.2563 38.876C88.6223 38.888 88.9943 38.909 89.3723 38.939C89.7503 38.969 90.1223 39.02 90.4883 39.092C90.8543 39.158 91.1783 39.272 91.4603 39.434C91.7483 39.59 91.9793 39.803 92.1533 40.073C92.3273 40.343 92.4143 40.694 92.4143 41.126C92.4143 41.522 92.3153 41.909 92.1173 42.287C91.9193 42.665 91.6313 43.001 91.2533 43.295C90.8813 43.589 90.4253 43.823 89.8853 43.997C89.3453 44.177 88.7303 44.267 88.0403 44.267C87.3563 44.267 86.7593 44.201 86.2493 44.069C85.7453 43.937 85.3223 43.757 84.9803 43.529C84.6443 43.307 84.3923 43.049 84.2243 42.755C84.0623 42.461 83.9813 42.155 83.9813 41.837C83.9813 41.405 84.1163 41.036 84.3863 40.73C84.6623 40.424 85.0343 40.184 85.5023 40.01C85.2503 39.89 85.0463 39.725 84.8903 39.515C84.7403 39.305 84.6653 39.029 84.6653 38.687C84.6653 38.417 84.7643 38.135 84.9623 37.841C85.1603 37.547 85.4573 37.298 85.8533 37.094C85.3973 36.842 85.0373 36.509 84.7733 36.095C84.5093 35.675 84.3773 35.186 84.3773 34.628C84.3773 34.172 84.4643 33.761 84.6383 33.395C84.8183 33.029 85.0673 32.717 85.3853 32.459C85.7033 32.201 86.0783 32.003 86.5103 31.865C86.9483 31.727 87.4253 31.658 87.9413 31.658C88.7333 31.658 89.4233 31.823 90.0113 32.153H92.5763ZM96.0758 27.68V41H94.1408V27.68H96.0758ZM104.485 35.375C104.485 35.051 104.437 34.751 104.341 34.475C104.251 34.193 104.116 33.95 103.936 33.746C103.756 33.536 103.531 33.374 103.261 33.26C102.997 33.14 102.691 33.08 102.343 33.08C101.641 33.08 101.089 33.281 100.687 33.683C100.285 34.085 100.03 34.649 99.9222 35.375H104.485ZM99.8682 36.563C99.8922 37.085 99.9732 37.538 100.111 37.922C100.249 38.3 100.432 38.615 100.66 38.867C100.894 39.119 101.17 39.308 101.488 39.434C101.812 39.554 102.172 39.614 102.568 39.614C102.946 39.614 103.273 39.572 103.549 39.488C103.825 39.398 104.065 39.302 104.269 39.2C104.473 39.092 104.647 38.996 104.791 38.912C104.935 38.822 105.067 38.777 105.187 38.777C105.343 38.777 105.463 38.837 105.547 38.957L106.096 39.668C105.868 39.938 105.61 40.166 105.322 40.352C105.034 40.538 104.728 40.691 104.404 40.811C104.08 40.925 103.747 41.006 103.405 41.054C103.063 41.108 102.73 41.135 102.406 41.135C101.77 41.135 101.179 41.03 100.633 40.82C100.093 40.604 99.6222 40.289 99.2202 39.875C98.8242 39.461 98.5122 38.948 98.2842 38.336C98.0622 37.724 97.9512 37.019 97.9512 36.221C97.9512 35.585 98.0502 34.991 98.2482 34.439C98.4522 33.887 98.7402 33.407 99.1122 32.999C99.4902 32.591 99.9462 32.27 100.48 32.036C101.02 31.796 101.629 31.676 102.307 31.676C102.871 31.676 103.393 31.769 103.873 31.955C104.353 32.135 104.767 32.402 105.115 32.756C105.463 33.11 105.733 33.545 105.925 34.061C106.123 34.571 106.222 35.153 106.222 35.807C106.222 36.107 106.189 36.308 106.123 36.41C106.057 36.512 105.937 36.563 105.763 36.563H99.8682ZM114.444 38.696C114.714 39.044 115.008 39.29 115.326 39.434C115.65 39.572 116.007 39.641 116.397 39.641C117.153 39.641 117.741 39.365 118.161 38.813C118.587 38.261 118.8 37.439 118.8 36.347C118.8 35.783 118.752 35.303 118.656 34.907C118.56 34.505 118.422 34.178 118.242 33.926C118.062 33.674 117.843 33.491 117.585 33.377C117.327 33.263 117.036 33.206 116.712 33.206C116.22 33.206 115.794 33.314 115.434 33.53C115.08 33.74 114.75 34.043 114.444 34.439V38.696ZM114.345 33.152C114.729 32.702 115.164 32.339 115.65 32.063C116.142 31.787 116.712 31.649 117.36 31.649C117.876 31.649 118.344 31.754 118.764 31.964C119.184 32.168 119.544 32.468 119.844 32.864C120.144 33.26 120.375 33.752 120.537 34.34C120.705 34.922 120.789 35.591 120.789 36.347C120.789 37.025 120.696 37.658 120.51 38.246C120.33 38.828 120.069 39.335 119.727 39.767C119.385 40.193 118.971 40.529 118.485 40.775C117.999 41.015 117.45 41.135 116.838 41.135C116.298 41.135 115.839 41.048 115.461 40.874C115.089 40.7 114.75 40.46 114.444 40.154V44.051H112.509V31.82H113.679C113.943 31.82 114.111 31.943 114.183 32.189L114.345 33.152ZM124.64 27.68V41H122.705V27.68H124.64ZM131.934 36.986C131.244 37.01 130.662 37.067 130.188 37.157C129.714 37.241 129.33 37.352 129.036 37.49C128.742 37.622 128.529 37.781 128.397 37.967C128.271 38.153 128.208 38.357 128.208 38.579C128.208 38.795 128.241 38.981 128.307 39.137C128.379 39.287 128.475 39.413 128.595 39.515C128.721 39.611 128.865 39.683 129.027 39.731C129.195 39.773 129.378 39.794 129.576 39.794C130.08 39.794 130.512 39.701 130.872 39.515C131.238 39.323 131.592 39.047 131.934 38.687V36.986ZM126.804 33.098C127.842 32.132 129.078 31.649 130.512 31.649C131.04 31.649 131.508 31.736 131.916 31.91C132.33 32.078 132.675 32.318 132.951 32.63C133.233 32.942 133.446 33.314 133.59 33.746C133.74 34.172 133.815 34.646 133.815 35.168V41H132.951C132.765 41 132.624 40.973 132.528 40.919C132.432 40.859 132.351 40.742 132.285 40.568L132.096 39.821C131.862 40.031 131.631 40.22 131.403 40.388C131.175 40.55 130.938 40.688 130.692 40.802C130.452 40.916 130.191 41 129.909 41.054C129.633 41.114 129.327 41.144 128.991 41.144C128.619 41.144 128.271 41.093 127.947 40.991C127.629 40.889 127.353 40.736 127.119 40.532C126.885 40.322 126.699 40.064 126.561 39.758C126.429 39.452 126.363 39.092 126.363 38.678C126.363 38.324 126.456 37.979 126.642 37.643C126.834 37.307 127.146 37.007 127.578 36.743C128.016 36.473 128.589 36.251 129.297 36.077C130.011 35.903 130.89 35.804 131.934 35.78V35.168C131.934 34.508 131.793 34.016 131.511 33.692C131.229 33.368 130.815 33.206 130.269 33.206C129.897 33.206 129.585 33.254 129.333 33.35C129.081 33.44 128.862 33.539 128.676 33.647C128.49 33.755 128.325 33.857 128.181 33.953C128.037 34.043 127.884 34.088 127.722 34.088C127.59 34.088 127.476 34.055 127.38 33.989C127.29 33.917 127.215 33.83 127.155 33.728L126.804 33.098ZM143.98 31.82L138.922 43.61C138.856 43.748 138.775 43.856 138.679 43.934C138.589 44.012 138.448 44.051 138.256 44.051H136.825L138.517 40.379L134.773 31.82H136.456C136.618 31.82 136.741 31.859 136.825 31.937C136.915 32.009 136.981 32.096 137.023 32.198L139.21 37.409C139.264 37.559 139.312 37.709 139.354 37.859C139.402 38.003 139.447 38.153 139.489 38.309C139.537 38.153 139.585 38 139.633 37.85C139.681 37.7 139.735 37.55 139.795 37.4L141.892 32.198C141.934 32.09 142.003 32 142.099 31.928C142.201 31.856 142.312 31.82 142.432 31.82H143.98Z" fill="white"/>
<defs>
<clipPath id="clip0_1_467">
<rect width="28" height="30" fill="white" transform="translate(10 12)"/>
</clipPath>
</defs>
</svg>
