<svg width="14" height="16" viewBox="0 0 14 16" fill="none" xmlns="http://www.w3.org/2000/svg">
<path d="M13.3781 0.085C13.4463 0.130637 13.5023 0.192369 13.541 0.264746C13.5797 0.337123 13.6 0.417918 13.6001 0.5V8C13.6001 8.09985 13.5702 8.19741 13.5142 8.28011C13.4582 8.36281 13.3788 8.42685 13.2861 8.464L13.1001 8L13.2861 8.464L13.2831 8.465L13.2771 8.468L13.2541 8.477C13.1226 8.52925 12.9903 8.57926 12.8571 8.627C12.5931 8.722 12.2261 8.85 11.8101 8.977C10.9941 9.229 9.9311 9.5 9.1001 9.5C8.2531 9.5 7.5521 9.22 6.9421 8.975L6.9141 8.965C6.2801 8.71 5.7401 8.5 5.1001 8.5C4.4001 8.5 3.4621 8.73 2.6631 8.977C2.30535 9.08849 1.95087 9.21021 1.6001 9.342V15.5C1.6001 15.6326 1.54742 15.7598 1.45365 15.8536C1.35988 15.9473 1.23271 16 1.1001 16C0.967489 16 0.840313 15.9473 0.746544 15.8536C0.652776 15.7598 0.600098 15.6326 0.600098 15.5V0.5C0.600098 0.367392 0.652776 0.240215 0.746544 0.146447C0.840313 0.0526784 0.967489 0 1.1001 0C1.23271 0 1.35988 0.0526784 1.45365 0.146447C1.54742 0.240215 1.6001 0.367392 1.6001 0.5V0.782C1.8261 0.703 2.0961 0.612 2.3901 0.522C3.2061 0.272 4.2701 0 5.1001 0C5.9401 0 6.6241 0.277 7.2211 0.519L7.2641 0.537C7.8861 0.788 8.4281 1 9.1001 1C9.8001 1 10.7381 0.77 11.5371 0.523C11.9924 0.380812 12.4424 0.22204 12.8861 0.047L12.9051 0.04L12.9091 0.038H12.9101" fill="#0EE73E"/>
</svg>
