<svg width="129" height="129" viewBox="0 0 129 129" fill="none" xmlns="http://www.w3.org/2000/svg">
<rect width="129" height="129" rx="24" fill="white"/>
<g filter="url(#filter0_f_405_157)">
<circle cx="57.5" cy="77.5" r="9.5" fill="#3083FF"/>
</g>
<path opacity="0.4" d="M87.9051 65.9907C87.5676 62.7305 86.5776 59.2529 79.3551 59.2529H50.6451C43.4226 59.2529 42.4551 62.7305 42.0951 65.9907L40.8351 78.0237C40.6776 79.5254 41.2401 81.0271 42.4101 82.1533C43.6026 83.2993 45.2901 83.9514 47.0901 83.9514H51.3201C54.9651 83.9514 55.6626 82.1138 56.1126 80.9085L56.5626 79.723C57.0801 78.3596 57.2151 78.0237 59.2401 78.0237H70.7601C72.7851 78.0237 72.8526 78.2213 73.4376 79.723L73.8876 80.9085C74.3376 82.1138 75.0351 83.9514 78.6801 83.9514H82.9101C84.6876 83.9514 86.3976 83.2993 87.5901 82.1533C88.7601 81.0271 89.3226 79.5254 89.1651 78.0237L87.9051 65.9907Z" fill="#3083FF"/>
<path d="M85.25 53.3251H83C82.9775 53.3251 82.9775 53.3251 82.955 53.3251L82.1 49.7488C81.29 46.291 79.6025 43.1099 72.8975 43.1099H66.6875H63.3125H57.1025C50.3975 43.1099 48.71 46.291 47.9 49.7488L47.045 53.3251C47.0225 53.3251 47.0225 53.3251 47 53.3251H44.75C43.8275 53.3251 43.0625 53.9969 43.0625 54.807C43.0625 55.6171 43.8275 56.2889 44.75 56.2889H46.3475L45.4025 60.2407C46.6175 59.6282 48.305 59.2528 50.645 59.2528H79.355C81.695 59.2528 83.3825 59.6282 84.5975 60.2407L83.6525 56.2889H85.25C86.1725 56.2889 86.9375 55.6171 86.9375 54.807C86.9375 53.9969 86.1725 53.3251 85.25 53.3251Z" fill="#3083FF"/>
<path d="M58.25 70.1201H51.5C50.5775 70.1201 49.8125 69.4483 49.8125 68.6382C49.8125 67.828 50.5775 67.1562 51.5 67.1562H58.25C59.1725 67.1562 59.9375 67.828 59.9375 68.6382C59.9375 69.4483 59.1725 70.1201 58.25 70.1201Z" fill="#3083FF"/>
<path d="M78.5 70.1201H71.75C70.8275 70.1201 70.0625 69.4483 70.0625 68.6382C70.0625 67.828 70.8275 67.1562 71.75 67.1562H78.5C79.4225 67.1562 80.1875 67.828 80.1875 68.6382C80.1875 69.4483 79.4225 70.1201 78.5 70.1201Z" fill="#3083FF"/>
<defs>
<filter id="filter0_f_405_157" x="17" y="37" width="81" height="81" filterUnits="userSpaceOnUse" color-interpolation-filters="sRGB">
<feFlood flood-opacity="0" result="BackgroundImageFix"/>
<feBlend mode="normal" in="SourceGraphic" in2="BackgroundImageFix" result="shape"/>
<feGaussianBlur stdDeviation="15.5" result="effect1_foregroundBlur_405_157"/>
</filter>
</defs>
</svg>
