<svg width="20" height="21" viewBox="0 0 20 21" fill="none" xmlns="http://www.w3.org/2000/svg">
<path d="M10.0167 6.81934C7.87388 6.81934 6.16629 8.56041 6.16629 10.6698C6.16629 12.8126 7.87388 14.5202 10.0167 14.5202C12.1261 14.5202 13.8672 12.8126 13.8672 10.6698C13.8672 8.56041 12.1261 6.81934 10.0167 6.81934ZM10.0167 13.1809C8.64397 13.1809 7.50558 12.076 7.50558 10.6698C7.50558 9.29701 8.61049 8.1921 10.0167 8.1921C11.3895 8.1921 12.4944 9.29701 12.4944 10.6698C12.4944 12.076 11.3895 13.1809 10.0167 13.1809ZM14.9051 6.68541C14.9051 6.18318 14.5033 5.78139 14.0011 5.78139C13.4989 5.78139 13.0971 6.18318 13.0971 6.68541C13.0971 7.18764 13.4989 7.58943 14.0011 7.58943C14.5033 7.58943 14.9051 7.18764 14.9051 6.68541ZM17.4498 7.58943C17.3828 6.38407 17.115 5.31264 16.2444 4.4421C15.3739 3.57157 14.3025 3.30371 13.0971 3.23675C11.8583 3.16978 8.14174 3.16978 6.9029 3.23675C5.69754 3.30371 4.6596 3.57157 3.75558 4.4421C2.88504 5.31264 2.61719 6.38407 2.55022 7.58943C2.48326 8.82826 2.48326 12.5448 2.55022 13.7836C2.61719 14.989 2.88504 16.0269 3.75558 16.9309C4.6596 17.8015 5.69754 18.0693 6.9029 18.1363C8.14174 18.2033 11.8583 18.2033 13.0971 18.1363C14.3025 18.0693 15.3739 17.8015 16.2444 16.9309C17.115 16.0269 17.3828 14.989 17.4498 13.7836C17.5167 12.5448 17.5167 8.82826 17.4498 7.58943ZM15.8426 15.0894C15.6083 15.7591 15.0725 16.2613 14.4364 16.5292C13.4319 16.9309 11.0882 16.8305 10.0167 16.8305C8.91183 16.8305 6.56808 16.9309 5.5971 16.5292C4.92746 16.2613 4.42522 15.7591 4.15737 15.0894C3.75558 14.1184 3.85603 11.7747 3.85603 10.6698C3.85603 9.59835 3.75558 7.2546 4.15737 6.25014C4.42522 5.61398 4.92746 5.11175 5.5971 4.84389C6.56808 4.4421 8.91183 4.54255 10.0167 4.54255C11.0882 4.54255 13.4319 4.4421 14.4364 4.84389C15.0725 5.07826 15.5748 5.61398 15.8426 6.25014C16.2444 7.2546 16.144 9.59835 16.144 10.6698C16.144 11.7747 16.2444 14.1184 15.8426 15.0894Z" fill="white"/>
</svg>
