<svg width="13" height="16" viewBox="0 0 13 16" fill="none" xmlns="http://www.w3.org/2000/svg">
<path d="M9.75095 13.6658C8.05013 15.7301 4.95179 15.7301 3.25097 13.6658C1.76526 11.8613 0.000977379 9.17397 0.000977379 6.61314C0.000333046 5.3053 0.381234 4.02666 1.09548 2.93904C1.80972 1.85143 2.82519 1.00372 4.01339 0.503203C5.20158 0.00268804 6.50908 -0.128136 7.77042 0.127288C9.03176 0.382712 10.1902 1.0129 11.0992 1.9381C11.7044 2.5508 12.1841 3.27946 12.5106 4.08193C12.837 4.8844 13.0037 5.74473 13.0009 6.61314C13.0009 9.17397 11.2367 11.8613 9.75095 13.6658ZM6.50096 3.78036C5.76215 3.78036 5.05359 4.07881 4.53117 4.61006C4.00875 5.14131 3.71525 5.86184 3.71525 6.61314C3.71525 7.36444 4.00875 8.08497 4.53117 8.61622C5.05359 9.14747 5.76215 9.44592 6.50096 9.44592C7.23978 9.44592 7.94833 9.14747 8.47075 8.61622C8.99317 8.08497 9.28667 7.36444 9.28667 6.61314C9.28667 5.86184 8.99317 5.14131 8.47075 4.61006C7.94833 4.07881 7.23978 3.78036 6.50096 3.78036Z" fill="#D50000"/>
</svg>
