<svg width="142" height="35" viewBox="0 0 142 35" fill="none" xmlns="http://www.w3.org/2000/svg">
<path d="M60.327 10.283H54.815V26H50.902V10.283H45.39V7.137H60.327V10.283ZM63.2477 22.464C63.5857 22.854 63.9497 23.127 64.3397 23.283C64.7384 23.439 65.1631 23.517 65.6137 23.517C66.0471 23.517 66.4414 23.4347 66.7967 23.27C67.1521 23.1053 67.4554 22.8497 67.7067 22.503C67.9667 22.1477 68.1661 21.697 68.3047 21.151C68.4434 20.605 68.5127 19.955 68.5127 19.201C68.5127 18.4557 68.4521 17.823 68.3307 17.303C68.2181 16.783 68.0534 16.3627 67.8367 16.042C67.6287 15.7213 67.3731 15.4917 67.0697 15.353C66.7664 15.2057 66.4284 15.132 66.0557 15.132C65.4231 15.132 64.8901 15.2577 64.4567 15.509C64.0321 15.7517 63.6291 16.1113 63.2477 16.588V22.464ZM63.0397 14.352C63.3084 14.0573 63.5944 13.7887 63.8977 13.546C64.2011 13.2947 64.5261 13.0823 64.8727 12.909C65.2194 12.727 65.5921 12.5883 65.9907 12.493C66.3894 12.389 66.8227 12.337 67.2907 12.337C68.0101 12.337 68.6687 12.493 69.2667 12.805C69.8734 13.1083 70.3934 13.5547 70.8267 14.144C71.2601 14.7247 71.5981 15.4397 71.8407 16.289C72.0834 17.1383 72.2047 18.109 72.2047 19.201C72.2047 20.2063 72.0661 21.138 71.7887 21.996C71.5201 22.8453 71.1344 23.582 70.6317 24.206C70.1291 24.83 69.5224 25.3197 68.8117 25.675C68.1097 26.0217 67.3254 26.195 66.4587 26.195C65.7307 26.195 65.1111 26.0867 64.5997 25.87C64.0971 25.6533 63.6464 25.3587 63.2477 24.986V30.329H59.6597V12.597H61.8697C62.3204 12.597 62.6194 12.805 62.7667 13.221L63.0397 14.352ZM81.5203 20.397C80.6449 20.4403 79.9169 20.5183 79.3363 20.631C78.7556 20.735 78.2919 20.8737 77.9453 21.047C77.6073 21.2203 77.3646 21.4197 77.2173 21.645C77.0786 21.8617 77.0093 22.1 77.0093 22.36C77.0093 22.88 77.1523 23.2483 77.4383 23.465C77.7329 23.6817 78.1403 23.79 78.6603 23.79C79.2583 23.79 79.7739 23.686 80.2073 23.478C80.6493 23.2613 81.0869 22.9277 81.5203 22.477V20.397ZM74.2143 14.456C75.0029 13.7453 75.8739 13.2167 76.8273 12.87C77.7806 12.5147 78.8119 12.337 79.9213 12.337C80.7186 12.337 81.4293 12.467 82.0533 12.727C82.6859 12.987 83.2189 13.351 83.6523 13.819C84.0943 14.2783 84.4323 14.8287 84.6663 15.47C84.9003 16.1113 85.0173 16.8133 85.0173 17.576V26H83.3793C83.0413 26 82.7813 25.9523 82.5993 25.857C82.4259 25.7617 82.2829 25.5623 82.1703 25.259L81.8843 24.401C81.5463 24.6957 81.2169 24.9557 80.8963 25.181C80.5843 25.4063 80.2593 25.597 79.9213 25.753C79.5833 25.9003 79.2193 26.013 78.8293 26.091C78.4479 26.169 78.0189 26.208 77.5423 26.208C76.9529 26.208 76.4156 26.13 75.9303 25.974C75.4449 25.818 75.0246 25.5883 74.6693 25.285C74.3226 24.973 74.0539 24.5873 73.8633 24.128C73.6726 23.6687 73.5773 23.14 73.5773 22.542C73.5773 22.048 73.7029 21.554 73.9543 21.06C74.2056 20.566 74.6346 20.1197 75.2413 19.721C75.8566 19.3137 76.6713 18.98 77.6853 18.72C78.7079 18.4513 79.9863 18.2997 81.5203 18.265V17.576C81.5203 16.7353 81.3426 16.12 80.9873 15.73C80.6319 15.3313 80.1206 15.132 79.4533 15.132C78.9593 15.132 78.5476 15.1927 78.2183 15.314C77.8889 15.4267 77.5986 15.5523 77.3473 15.691C77.1046 15.821 76.8749 15.9467 76.6583 16.068C76.4416 16.1807 76.1903 16.237 75.9043 16.237C75.6529 16.237 75.4406 16.1763 75.2673 16.055C75.1026 15.925 74.9639 15.7733 74.8513 15.6L74.2143 14.456ZM99.7129 12.597V26H96.1379V20.189H91.4059V26H87.8179V12.597H91.4059V17.576H96.1379V12.597H99.7129ZM101.943 14.079C102.463 13.5763 103.1 13.169 103.854 12.857C104.608 12.545 105.518 12.389 106.584 12.389C107.416 12.389 108.157 12.4887 108.807 12.688C109.466 12.8873 110.02 13.156 110.471 13.494C110.922 13.8233 111.264 14.209 111.498 14.651C111.732 15.0843 111.849 15.5393 111.849 16.016C111.849 16.2673 111.81 16.5273 111.732 16.796C111.663 17.0647 111.546 17.329 111.381 17.589C111.216 17.8403 111 18.0787 110.731 18.304C110.462 18.5293 110.129 18.72 109.73 18.876C110.432 19.1533 111 19.5563 111.433 20.085C111.875 20.6137 112.096 21.2767 112.096 22.074C112.096 22.7327 111.94 23.3177 111.628 23.829C111.325 24.3403 110.922 24.7737 110.419 25.129C109.916 25.4757 109.34 25.74 108.69 25.922C108.049 26.104 107.39 26.195 106.714 26.195C106.341 26.195 105.934 26.1603 105.492 26.091C105.059 26.0303 104.617 25.9177 104.166 25.753C103.715 25.5797 103.265 25.35 102.814 25.064C102.372 24.7693 101.96 24.401 101.579 23.959L102.619 22.659C102.775 22.451 102.992 22.347 103.269 22.347C103.486 22.347 103.685 22.4077 103.867 22.529C104.049 22.6503 104.253 22.7847 104.478 22.932C104.712 23.0793 104.985 23.2137 105.297 23.335C105.609 23.4563 105.999 23.517 106.467 23.517C107.212 23.517 107.767 23.3523 108.131 23.023C108.504 22.6937 108.69 22.2777 108.69 21.775C108.69 21.281 108.495 20.8953 108.105 20.618C107.715 20.3407 107.074 20.202 106.181 20.202H104.673V17.927H106.181C106.97 17.927 107.568 17.7927 107.975 17.524C108.391 17.2553 108.599 16.8957 108.599 16.445C108.599 16.029 108.417 15.6953 108.053 15.444C107.689 15.1927 107.165 15.067 106.48 15.067C106.038 15.067 105.665 15.1147 105.362 15.21C105.059 15.2967 104.794 15.392 104.569 15.496C104.352 15.6 104.162 15.6997 103.997 15.795C103.841 15.8817 103.689 15.925 103.542 15.925C103.377 15.925 103.234 15.8947 103.113 15.834C103 15.7733 102.879 15.639 102.749 15.431L101.943 14.079ZM126.699 12.597V26H123.111V18.629C123.111 18.4297 123.12 18.2043 123.137 17.953C123.163 17.693 123.198 17.4373 123.241 17.186C123.042 17.6193 122.838 17.9877 122.63 18.291C122.613 18.3083 122.535 18.421 122.396 18.629C122.258 18.837 122.076 19.1057 121.85 19.435C121.625 19.7557 121.369 20.1197 121.083 20.527C120.806 20.9343 120.52 21.3503 120.225 21.775C119.541 22.763 118.765 23.8853 117.898 25.142C117.829 25.246 117.747 25.35 117.651 25.454C117.565 25.5493 117.465 25.6403 117.352 25.727C117.248 25.8137 117.136 25.883 117.014 25.935C116.893 25.987 116.763 26.013 116.624 26.013H114.427V12.61H118.015V19.981C118.015 20.189 118.002 20.423 117.976 20.683C117.95 20.943 117.916 21.1987 117.872 21.45C117.976 21.2247 118.08 21.0167 118.184 20.826C118.288 20.6353 118.392 20.4663 118.496 20.319C118.505 20.3017 118.579 20.189 118.717 19.981C118.865 19.773 119.051 19.5087 119.276 19.188C119.502 18.8587 119.753 18.4903 120.03 18.083C120.316 17.6757 120.607 17.2597 120.901 16.835C121.586 15.847 122.366 14.7247 123.241 13.468C123.371 13.26 123.545 13.065 123.761 12.883C123.987 12.6923 124.238 12.597 124.515 12.597H126.699ZM141.335 15.21H136.707V26H133.119V15.21H128.491V12.597H141.335V15.21Z" fill="#1D1E21"/>
<path d="M0 31.4738C5.24211 31.4738 9.49164 26.9955 9.49164 21.4715C9.49164 15.9473 5.24211 11.4691 0 11.4691V18.4707C1.57262 18.4707 2.84748 19.8142 2.84748 21.4715C2.84748 23.1287 1.57262 24.4722 0 24.4722V31.4738Z" fill="#0056D8"/>
<path d="M31.6393 14.8033C30.0174 14.2618 28.2901 13.9697 26.498 13.9697C17.1059 13.9697 9.49219 21.9932 9.49219 31.8904C9.49219 32.8839 9.5689 33.8584 9.71638 34.8078H20.2827C19.9055 33.9167 19.6958 32.9294 19.6958 31.8904C19.6958 27.9315 22.7412 24.7221 26.498 24.7221C28.5513 24.7221 30.3921 25.6808 31.6393 27.1966V14.8033Z" fill="#7AAFFF"/>
<path d="M1.66895 1.4668C2.45587 8.96844 8.49112 14.8032 15.8195 14.8032C23.1479 14.8032 29.1832 8.96844 29.97 1.4668H19.7882C19.1596 3.12736 17.6195 4.30077 15.8195 4.30077C14.0194 4.30077 12.4795 3.12736 11.8508 1.4668H1.66895Z" fill="#3083FF"/>
</svg>
