<svg width="16" height="16" viewBox="0 0 16 16" fill="none" xmlns="http://www.w3.org/2000/svg">
<path d="M13.3025 2.69749C12.0719 1.45886 10.4477 0.688396 8.70993 0.518918C6.97217 0.349439 5.22973 0.79157 3.78301 1.76908C2.33628 2.7466 1.27594 4.19824 0.78479 5.87374C0.293636 7.54925 0.402448 9.34361 1.09247 10.9475C1.16438 11.0966 1.18798 11.2644 1.15997 11.4275L0.499967 14.6C0.474539 14.7216 0.479731 14.8477 0.515077 14.9668C0.550423 15.0859 0.614815 15.1944 0.702467 15.2825C0.77432 15.3538 0.859872 15.4099 0.953967 15.4472C1.04806 15.4846 1.14875 15.5026 1.24997 15.5H1.39997L4.60997 14.855C4.77311 14.8354 4.93856 14.8586 5.08997 14.9225C6.69384 15.6125 8.48821 15.7213 10.1637 15.2302C11.8392 14.739 13.2909 13.6787 14.2684 12.2319C15.2459 10.7852 15.688 9.04278 15.5185 7.30502C15.3491 5.56726 14.5786 3.94308 13.34 2.71249L13.3025 2.69749ZM4.99997 8.74999C4.85163 8.74999 4.70663 8.706 4.58329 8.62359C4.45995 8.54118 4.36382 8.42404 4.30706 8.287C4.25029 8.14995 4.23544 7.99915 4.26438 7.85367C4.29332 7.70818 4.36475 7.57455 4.46964 7.46966C4.57453 7.36477 4.70816 7.29334 4.85365 7.2644C4.99913 7.23546 5.14993 7.25031 5.28698 7.30708C5.42402 7.36384 5.54116 7.45997 5.62357 7.58331C5.70598 7.70665 5.74997 7.85165 5.74997 7.99999C5.74997 8.1989 5.67095 8.38966 5.5303 8.53032C5.38964 8.67097 5.19888 8.74999 4.99997 8.74999ZM7.99997 8.74999C7.85163 8.74999 7.70663 8.706 7.58329 8.62359C7.45995 8.54118 7.36382 8.42404 7.30706 8.287C7.25029 8.14995 7.23544 7.99915 7.26438 7.85367C7.29332 7.70818 7.36475 7.57455 7.46964 7.46966C7.57453 7.36477 7.70816 7.29334 7.85365 7.2644C7.99913 7.23546 8.14993 7.25031 8.28698 7.30708C8.42402 7.36384 8.54116 7.45997 8.62357 7.58331C8.70598 7.70665 8.74997 7.85165 8.74997 7.99999C8.74997 8.1989 8.67095 8.38966 8.5303 8.53032C8.38964 8.67097 8.19888 8.74999 7.99997 8.74999ZM11 8.74999C10.8516 8.74999 10.7066 8.706 10.5833 8.62359C10.46 8.54118 10.3638 8.42404 10.3071 8.287C10.2503 8.14995 10.2354 7.99915 10.2644 7.85367C10.2933 7.70818 10.3647 7.57455 10.4696 7.46966C10.5745 7.36477 10.7082 7.29334 10.8536 7.2644C10.9991 7.23546 11.1499 7.25031 11.287 7.30708C11.424 7.36384 11.5412 7.45997 11.6236 7.58331C11.706 7.70665 11.75 7.85165 11.75 7.99999C11.75 8.1989 11.6709 8.38966 11.5303 8.53032C11.3896 8.67097 11.1989 8.74999 11 8.74999Z" fill="#3083FF"/>
</svg>
