<svg width="18" height="17" viewBox="0 0 18 17" fill="none" xmlns="http://www.w3.org/2000/svg">
<path d="M2.25 3V0.75H3.75V3H6V4.5H3.75V6.75H2.25V4.5H0V3H2.25ZM4.5 7.5V5.25H6.75V3H12L13.3725 4.5H15.75C16.575 4.5 17.25 5.175 17.25 6V15C17.25 15.825 16.575 16.5 15.75 16.5H3.75C2.925 16.5 2.25 15.825 2.25 15V7.5H4.5ZM9.75 14.25C11.82 14.25 13.5 12.57 13.5 10.5C13.5 8.43 11.82 6.75 9.75 6.75C7.68 6.75 6 8.43 6 10.5C6 12.57 7.68 14.25 9.75 14.25ZM7.35 10.5C7.35 11.8275 8.4225 12.9 9.75 12.9C11.0775 12.9 12.15 11.8275 12.15 10.5C12.15 9.1725 11.0775 8.1 9.75 8.1C8.4225 8.1 7.35 9.1725 7.35 10.5Z" fill="white" fill-opacity="0.7"/>
</svg>
