<svg width="20" height="20" viewBox="0 0 20 20" fill="none" xmlns="http://www.w3.org/2000/svg">
<g clip-path="url(#clip0_1_2802)">
<path d="M18.8888 9.32222C19.0953 9.1684 19.2485 8.95382 19.3268 8.70856C19.4052 8.4633 19.4049 8.19966 19.3258 7.95462C19.2468 7.70957 19.0931 7.4954 18.8862 7.34214C18.6793 7.18887 18.4296 7.1042 18.1722 7.1L13.1722 6.91111C13.1476 6.90941 13.124 6.90064 13.1043 6.88586C13.0846 6.87107 13.0696 6.8509 13.0611 6.82778L11.3333 2.16111C11.2465 1.92369 11.0888 1.71867 10.8816 1.57383C10.6744 1.42898 10.4277 1.3513 10.175 1.3513C9.92216 1.3513 9.67547 1.42898 9.46828 1.57383C9.2611 1.71867 9.10343 1.92369 9.01662 2.16111L7.2944 6.84444C7.28588 6.86757 7.27087 6.88774 7.25115 6.90252C7.23144 6.91731 7.20787 6.92608 7.18329 6.92778L2.18329 7.11666C1.92584 7.12087 1.67617 7.20554 1.46928 7.3588C1.26239 7.51206 1.10865 7.72624 1.02962 7.97128C0.950597 8.21633 0.950242 8.47997 1.02861 8.72523C1.10698 8.97049 1.26014 9.18507 1.46662 9.33889L5.38884 12.4222C5.40847 12.4377 5.42314 12.4585 5.43104 12.4822C5.43894 12.5059 5.43972 12.5314 5.43329 12.5556L4.08329 17.3389C4.01333 17.5825 4.02011 17.8417 4.1027 18.0813C4.18529 18.3209 4.33968 18.5292 4.54487 18.6779C4.75006 18.8267 4.99609 18.9086 5.24948 18.9125C5.50288 18.9165 5.75134 18.8423 5.96106 18.7L10.1055 15.9222C10.1259 15.9081 10.1501 15.9006 10.175 15.9006C10.1998 15.9006 10.224 15.9081 10.2444 15.9222L14.3888 18.7C14.5957 18.8471 14.8433 18.9262 15.0972 18.9262C15.351 18.9262 15.5986 18.8471 15.8055 18.7C16.0108 18.5527 16.1653 18.3454 16.2479 18.1066C16.3304 17.8678 16.337 17.6093 16.2666 17.3667L14.9055 12.5667C14.8983 12.5426 14.8987 12.5168 14.9066 12.493C14.9146 12.4691 14.9297 12.4483 14.95 12.4333L18.8888 9.32222Z" fill="#FFD900"/>
</g>
<defs>
<clipPath id="clip0_1_2802">
<rect width="20" height="20" fill="white"/>
</clipPath>
</defs>
</svg>
