<svg width="24" height="24" viewBox="0 0 24 24" fill="none" xmlns="http://www.w3.org/2000/svg">
<path fill-rule="evenodd" clip-rule="evenodd" d="M12.0003 18.4553L7.31105 20.8706C6.74981 21.1596 6.05564 20.9482 5.76058 20.3984C5.64309 20.1794 5.60254 19.9287 5.64523 19.6848L6.54079 14.5693L2.7471 10.9464C2.29305 10.5128 2.28376 9.8007 2.72635 9.35587C2.90259 9.17873 3.13352 9.06346 3.38339 9.02788L8.62615 8.28154L10.9708 3.62725C11.2514 3.07019 11.9398 2.84148 12.5084 3.1164C12.7348 3.22588 12.9181 3.40542 13.0299 3.62725L15.3745 8.28154L20.6172 9.02788C21.2447 9.11721 21.6795 9.68798 21.5883 10.3027C21.552 10.5475 21.4343 10.7738 21.2535 10.9464L17.4598 14.5693L18.3554 19.6848C18.4626 20.2971 18.0429 20.8786 17.4179 20.9836C17.1691 21.0254 16.9131 20.9857 16.6896 20.8706L12.0003 18.4553Z" fill="#FFBD3D"/>
</svg>
