<svg width="23" height="21" viewBox="0 0 23 21" fill="none" xmlns="http://www.w3.org/2000/svg">
<g clip-path="url(#clip0_1_289)">
<path d="M13.8743 0.686523C14.572 0.686523 15.1356 1.24629 15.1356 1.93652V3.19238C16.657 3.27676 17.9853 4.26035 18.4937 5.69824L19.8811 9.62402C20.7955 9.99902 21.4419 10.8936 21.4419 11.9365V19.4365C21.4419 20.1279 20.8783 20.6865 20.1806 20.6865H18.9194C18.2217 20.6865 17.6581 20.1279 17.6581 19.4365V17.5615H5.0455V19.4365C5.0455 20.1279 4.48188 20.6865 3.78424 20.6865H2.52298C1.82653 20.6865 1.26172 20.1279 1.26172 19.4365V11.9365C1.26172 10.8936 1.90654 9.99902 2.82292 9.62402L4.20992 5.69824C4.71836 4.26035 6.04663 3.27676 7.56803 3.19238V1.93652C7.56803 1.24629 8.13165 0.686523 8.82929 0.686523H13.8743ZM7.78086 5.68652C7.24483 5.68652 6.76791 6.02246 6.59055 6.52246L5.56183 9.43652H17.1418L16.1131 6.52246C15.9357 6.02246 15.4588 5.68652 14.9228 5.68652H7.78086ZM5.0455 14.4365C5.74314 14.4365 6.30676 13.8779 6.30676 13.1865C6.30676 12.4951 5.74314 11.9365 5.0455 11.9365C4.34787 11.9365 3.78424 12.4951 3.78424 13.1865C3.78424 13.8779 4.34787 14.4365 5.0455 14.4365ZM17.6581 11.9365C16.9605 11.9365 16.3969 12.4951 16.3969 13.1865C16.3969 13.8779 16.9605 14.4365 17.6581 14.4365C18.3558 14.4365 18.9194 13.8779 18.9194 13.1865C18.9194 12.4951 18.3558 11.9365 17.6581 11.9365Z" fill="white"/>
</g>
<defs>
<clipPath id="clip0_1_289">
<rect width="22.7027" height="20" fill="white" transform="translate(0 0.686523)"/>
</clipPath>
</defs>
</svg>
