<svg width="26" height="26" viewBox="0 0 26 26" fill="none" xmlns="http://www.w3.org/2000/svg">
<path opacity="0.4" d="M19.7635 18.0496L20.1712 21.3532C20.2758 22.221 19.3453 22.8273 18.603 22.3778L14.2226 19.7746C13.7417 19.7746 13.2712 19.7433 12.8112 19.6805C13.5849 18.771 14.0449 17.621 14.0449 16.3769C14.0449 13.4078 11.473 11.0033 8.29485 11.0033C7.08212 11.0033 5.96349 11.3483 5.03304 11.9546C5.00167 11.6933 4.99121 11.4319 4.99121 11.1601C4.99121 6.40325 9.12076 2.54553 14.2226 2.54553C19.3244 2.54553 23.4539 6.40325 23.4539 11.1601C23.4539 13.9828 22.0008 16.4815 19.7635 18.0496Z" fill="#3083FF"/>
<path d="M14.0449 16.3769C14.0449 17.621 13.5849 18.771 12.8113 19.6806C11.7763 20.9351 10.1349 21.7401 8.29492 21.7401L5.56629 23.3605C5.10629 23.6428 4.52083 23.256 4.58356 22.7228L4.84492 20.6633C3.44401 19.691 2.54492 18.1332 2.54492 16.3769C2.54492 14.5369 3.52765 12.9164 5.03311 11.9546C5.96356 11.3483 7.08219 11.0033 8.29492 11.0033C11.4731 11.0033 14.0449 13.4078 14.0449 16.3769Z" fill="#3083FF"/>
</svg>
