<svg width="23" height="18" viewBox="0 0 23 18" fill="none" xmlns="http://www.w3.org/2000/svg">
<g clip-path="url(#clip0_1_2824)">
<path d="M11.2184 12.3434C9.97558 12.3434 8.96835 13.3509 8.96835 14.5937C8.96835 15.8365 9.97593 16.8441 11.2184 16.8441C12.4608 16.8441 13.4684 15.8365 13.4684 14.5937C13.4684 13.3509 12.491 12.3434 11.2184 12.3434ZM11.25 6.71836C8.78027 6.71836 6.40195 7.61836 4.55273 9.25066C4.08866 9.69258 4.04296 10.4027 4.45429 10.8703C4.86913 11.3344 5.57929 11.3801 6.04335 10.9687C7.48124 9.69961 9.33046 9 11.25 9C13.1695 9 15.0223 9.6989 16.4566 10.9687C16.6711 11.1586 16.9383 11.25 17.2019 11.25C17.3615 11.2501 17.5192 11.2163 17.6647 11.1508C17.8102 11.0853 17.9401 10.9895 18.0457 10.87C18.457 10.4027 18.4148 9.69258 17.9473 9.28125C16.098 7.65 13.7215 6.71836 11.25 6.71836ZM22.1555 5.50898C19.2059 2.68172 15.3351 1.125 11.25 1.125C7.16484 1.125 3.29378 2.68172 0.346071 5.50898C-0.102171 5.93965 -0.116585 6.65156 0.313094 7.0998C0.742704 7.5491 1.45462 7.56105 1.90391 7.13278C4.39804 4.6793 7.74843 3.375 11.25 3.375C14.7516 3.375 18.0387 4.70988 20.5945 7.1332C20.816 7.34062 21.0937 7.44609 21.375 7.44609C21.6705 7.44609 21.966 7.33075 22.1868 7.10001C22.616 6.65156 22.6019 5.90976 22.1555 5.50898Z" fill="#3083FF" fill-opacity="0.7"/>
</g>
<defs>
<clipPath id="clip0_1_2824">
<rect width="22.5" height="18" fill="white"/>
</clipPath>
</defs>
</svg>
