<svg width="26" height="26" viewBox="0 0 26 26" fill="none" xmlns="http://www.w3.org/2000/svg">
<path opacity="0.4" d="M12.9991 2.54553C10.26 2.54553 8.0332 4.77235 8.0332 7.51144C8.0332 10.1983 10.1346 12.3728 12.8737 12.4669C12.9573 12.4564 13.0409 12.4564 13.1037 12.4669C13.1246 12.4669 13.135 12.4669 13.1559 12.4669C13.1664 12.4669 13.1664 12.4669 13.1768 12.4669C15.8532 12.3728 17.9546 10.1983 17.965 7.51144C17.965 4.77235 15.7382 2.54553 12.9991 2.54553Z" fill="#3083FF"/>
<path opacity="0.4" d="M21.5398 20.3016C21.494 19.7985 21.3599 19.2618 20.3811 19.2618H16.4902C15.5114 19.2618 15.3803 19.7985 15.3315 20.3016L15.1607 22.1586C15.1394 22.3904 15.2156 22.6221 15.3742 22.7959C15.5358 22.9728 15.7645 23.0734 16.0084 23.0734H16.5817C17.0757 23.0734 17.1702 22.7898 17.2312 22.6038L17.2922 22.4209C17.3623 22.2105 17.3806 22.1586 17.655 22.1586H19.2162C19.4907 22.1586 19.4998 22.1891 19.5791 22.4209L19.6401 22.6038C19.7011 22.7898 19.7956 23.0734 20.2896 23.0734H20.8628C21.1037 23.0734 21.3355 22.9728 21.4971 22.7959C21.6556 22.6221 21.7319 22.3904 21.7105 22.1586L21.5398 20.3016Z" fill="#3083FF"/>
<path d="M21.1802 18.3471H20.8753C20.8722 18.3471 20.8722 18.3471 20.8692 18.3471L20.7533 17.7952C20.6436 17.2616 20.4149 16.7706 19.5062 16.7706H18.6646H18.2072H17.3656C16.4569 16.7706 16.2283 17.2616 16.1185 17.7952L16.0026 18.3471C15.9996 18.3471 15.9996 18.3471 15.9965 18.3471H15.6916C15.5666 18.3471 15.4629 18.4508 15.4629 18.5758C15.4629 18.7008 15.5666 18.8045 15.6916 18.8045H15.9081L15.78 19.4143C15.9447 19.3198 16.1734 19.2619 16.4905 19.2619H20.3813C20.6984 19.2619 20.9271 19.3198 21.0918 19.4143L20.9637 18.8045H21.1802C21.3052 18.8045 21.4089 18.7008 21.4089 18.5758C21.4089 18.4508 21.3052 18.3471 21.1802 18.3471Z" fill="#3083FF"/>
<path d="M17.5204 20.939H16.6056C16.4806 20.939 16.377 20.8353 16.377 20.7103C16.377 20.5852 16.4806 20.4816 16.6056 20.4816H17.5204C17.6454 20.4816 17.7491 20.5852 17.7491 20.7103C17.7491 20.8353 17.6454 20.939 17.5204 20.939Z" fill="#3083FF"/>
<path d="M20.2646 20.939H19.3498C19.2248 20.939 19.1211 20.8353 19.1211 20.7103C19.1211 20.5852 19.2248 20.4816 19.3498 20.4816H20.2646C20.3896 20.4816 20.4933 20.5852 20.4933 20.7103C20.4933 20.8353 20.3896 20.939 20.2646 20.939Z" fill="#3083FF"/>
<path fill-rule="evenodd" clip-rule="evenodd" d="M7.69919 15.2477C10.6369 13.3032 15.3937 13.3032 18.3106 15.2477C18.7403 15.5342 19.1067 15.8541 19.4056 16.1998C19.2577 16.1589 19.084 16.1363 18.8791 16.1363H17.9436H17.4352H16.4996C15.4895 16.1363 15.2353 16.6843 15.1133 17.2799L14.9845 17.8958H14.9777H14.6388C14.4998 17.8958 14.3845 18.0116 14.3845 18.1511C14.3845 18.2906 14.4998 18.4063 14.6388 18.4063H14.8794L14.7378 19.0834C14.3541 19.3006 14.2755 19.6975 14.2388 20.0774L14.049 22.15C14.0253 22.4086 14.11 22.6673 14.2863 22.8613C14.4659 23.0587 14.7201 23.171 14.9913 23.171H15.492C14.6871 23.36 13.8434 23.4545 12.9996 23.4545C11.076 23.4545 9.15238 22.9632 7.68874 21.9804C6.37147 21.1023 5.63965 19.9104 5.63965 18.6245C5.63965 17.3386 6.37147 16.1364 7.69919 15.2477ZM19.8519 18.9168H15.5269C15.5117 18.9168 15.4967 18.917 15.4819 18.9172C15.4967 18.917 15.5117 18.9168 15.5268 18.9168H19.8519C19.8671 18.9168 19.882 18.917 19.8968 18.9172C19.882 18.917 19.8671 18.9168 19.8519 18.9168Z" fill="#3083FF"/>
</svg>
