<svg width="26" height="26" viewBox="0 0 26 26" fill="none" xmlns="http://www.w3.org/2000/svg">
<path opacity="0.8" d="M13.9406 3.08917L13.9093 3.16235L10.8774 10.1983H7.8979C7.18699 10.1983 6.5179 10.3342 5.89062 10.606L7.72017 6.23599L7.76199 6.1419L7.82472 5.97463C7.85608 5.90145 7.87699 5.83872 7.90835 5.78645C9.2779 2.61872 10.8252 1.89735 13.9406 3.08917Z" fill="#3083FF"/>
<path d="M19.5751 10.4073C19.1047 10.2714 18.6133 10.1982 18.101 10.1982H10.877L13.9088 3.16229L13.9401 3.08911C14.0865 3.14138 14.2433 3.21457 14.4001 3.26684L16.7106 4.23911C17.9965 4.77229 18.8956 5.32638 19.4497 5.99548C19.5438 6.12093 19.6274 6.23593 19.711 6.37184C19.8051 6.5182 19.8783 6.66457 19.9201 6.82138C19.962 6.91548 19.9933 6.99911 20.0142 7.0932C20.286 7.98184 20.1188 9.05866 19.5751 10.4073Z" fill="#3083FF"/>
<path opacity="0.4" d="M23.2032 15.3001V17.3387C23.2032 17.5478 23.1927 17.7569 23.1823 17.9555C22.9836 21.6146 20.945 23.4546 17.0768 23.4546H8.92226C8.6609 23.4546 8.42044 23.4337 8.17999 23.4023C4.85544 23.1828 3.07817 21.4055 2.84817 18.081C2.81681 17.8301 2.7959 17.5896 2.7959 17.3387V15.3001C2.7959 13.1987 4.07135 11.3901 5.89044 10.606C6.51772 10.3342 7.18681 10.1982 7.89772 10.1982H18.1014C18.6136 10.1982 19.105 10.2714 19.5754 10.4073C21.6664 11.0451 23.2032 12.9896 23.2032 15.3001Z" fill="#3083FF"/>
<path opacity="0.6" d="M7.71999 6.23596L5.89044 10.606C4.07135 11.3901 2.7959 13.1987 2.7959 15.3001V12.2369C2.7959 9.26778 4.90772 6.79005 7.71999 6.23596Z" fill="#3083FF"/>
<path opacity="0.6" d="M23.2029 12.2369V15.3C23.2029 12.9896 21.6661 11.045 19.5752 10.4073C20.1188 9.05868 20.2861 7.98187 20.0143 7.09323C19.9934 6.99914 19.962 6.9155 19.9202 6.82141C21.8752 7.8355 23.2029 9.89505 23.2029 12.2369Z" fill="#3083FF"/>
</svg>
