<svg width="26" height="26" viewBox="0 0 26 26" fill="none" xmlns="http://www.w3.org/2000/svg">
<path opacity="0.4" d="M25.0536 13.0523C24.7504 12.7491 24.2486 12.7491 23.9454 13.0523L23.4645 13.5332V13C23.4645 7.22914 18.7704 2.53503 12.9995 2.53503C9.81087 2.53503 6.83132 3.96731 4.8345 6.45549C4.56269 6.79003 4.61495 7.29184 4.95995 7.5532C5.2945 7.82502 5.79632 7.77275 6.05768 7.42775C7.76177 5.30548 10.2918 4.09275 12.9995 4.09275C17.9027 4.09275 21.8963 8.0864 21.8963 12.9896V13.5123L21.4154 13.0314C21.1122 12.7283 20.6104 12.7283 20.3072 13.0314C20.004 13.3346 20.004 13.8364 20.3072 14.1396L22.1263 15.9587C22.1995 16.0319 22.2831 16.0841 22.3772 16.1259C22.4713 16.1678 22.5759 16.1887 22.6804 16.1887C22.785 16.1887 22.8791 16.1678 22.9836 16.1259C23.0777 16.0841 23.1613 16.0319 23.2345 15.9587L25.0536 14.1396C25.3568 13.8573 25.3568 13.3555 25.0536 13.0523Z" fill="#3083FF"/>
<path opacity="0.4" d="M21.0391 18.4364C20.7045 18.1646 20.2027 18.2168 19.9414 18.5618C18.2373 20.6841 15.7073 21.8968 12.9995 21.8968C8.09635 21.8968 4.10271 17.9032 4.10271 13V12.4773L4.58362 12.9582C4.74044 13.115 4.93908 13.1882 5.13772 13.1882C5.33636 13.1882 5.53499 13.115 5.69181 12.9582C5.99499 12.655 5.99499 12.1532 5.69181 11.85L3.87271 10.0309C3.79953 9.95769 3.7159 9.90545 3.62181 9.86363C3.43362 9.77999 3.21408 9.77999 3.0259 9.86363C2.93181 9.90545 2.84817 9.95769 2.77499 10.0309L0.955902 11.85C0.65272 12.1532 0.65272 12.655 0.955902 12.9582C1.25908 13.2614 1.7609 13.2614 2.06408 12.9582L2.54499 12.4773V13C2.54499 18.7709 7.23908 23.465 13.01 23.465C16.1986 23.465 19.1782 22.0327 21.175 19.5446C21.4364 19.21 21.3841 18.7082 21.0391 18.4364Z" fill="#3083FF"/>
<path d="M7.48281 15.9546V15.4637C7.48281 15.1037 7.58489 14.747 7.78903 14.3936C7.99318 14.0336 8.2388 13.7129 8.52589 13.4314C8.81935 13.1435 9.10963 12.8718 9.39671 12.6166C9.6838 12.3548 9.92942 12.0897 10.1336 11.8213C10.3377 11.553 10.4398 11.3043 10.4398 11.0752C10.4398 10.8199 10.3632 10.617 10.2101 10.4665C10.057 10.3094 9.84648 10.2309 9.57854 10.2309C9.26369 10.2309 9.01928 10.3471 8.84531 10.5795C8.6782 10.8027 8.41268 10.9703 8.14562 10.8901L7.90144 10.8168C7.64961 10.7412 7.49462 10.4802 7.60267 10.2405C7.62198 10.1977 7.64263 10.1552 7.66463 10.1131C7.76033 9.92981 7.88792 9.74655 8.04741 9.56329C8.21328 9.38002 8.43338 9.23276 8.70771 9.12149C8.98204 9.01022 9.29145 8.95459 9.63595 8.95459C10.2867 8.95459 10.813 9.1444 11.2149 9.52402C11.6168 9.89709 11.8178 10.3945 11.8178 11.0163C11.8178 11.3566 11.7317 11.6872 11.5594 12.0079C11.3872 12.3286 11.1735 12.61 10.9183 12.8522C10.6631 13.0878 10.4047 13.3136 10.1431 13.5296C9.88795 13.7391 9.65828 13.9518 9.45413 14.1678C9.24998 14.3772 9.12558 14.5703 9.08092 14.747H11.3944C11.6705 14.747 11.8944 14.9709 11.8944 15.247V15.4546C11.8944 15.7307 11.6705 15.9546 11.3944 15.9546H7.48281Z" fill="#3083FF"/>
<path d="M12.8535 14.3543C12.5774 14.3543 12.3535 14.1305 12.3535 13.8543V13.3627L15.1 9.08222H16.6694V13.1762H16.9541C17.2302 13.1762 17.4541 13.4 17.4541 13.6762V13.8543C17.4541 14.1305 17.2302 14.3543 16.9541 14.3543H16.6694V15.4546C16.6694 15.7307 16.4455 15.9546 16.1694 15.9546H15.8392C15.5631 15.9546 15.3392 15.7307 15.3392 15.4546V14.3543H12.8535ZM13.7411 13.1762H15.3392V10.6236L13.7411 13.1762Z" fill="#3083FF"/>
</svg>
