<svg width="24" height="24" viewBox="0 0 24 24" fill="none" xmlns="http://www.w3.org/2000/svg">
<path opacity="0.4" d="M12.9318 0.604107L15.8741 6.79832C15.941 6.95554 16.0463 7.09172 16.1794 7.1933C16.3125 7.29487 16.4689 7.35828 16.6328 7.37722L23.1281 8.38064C23.3162 8.40585 23.4935 8.48634 23.6393 8.6127C23.7852 8.73906 23.8935 8.90608 23.9517 9.09426C24.01 9.28243 24.0156 9.484 23.9681 9.67541C23.9205 9.86682 23.8218 10.0402 23.6833 10.1752L19.0015 15.0187C18.882 15.1351 18.7923 15.2808 18.7406 15.4426C18.6889 15.6043 18.6768 15.777 18.7054 15.9449L19.8342 22.7566C19.8669 22.9524 19.8462 23.1537 19.7746 23.3378C19.7029 23.5219 19.5832 23.6813 19.4289 23.7979C19.2747 23.9146 19.0921 23.9837 18.902 23.9974C18.712 24.0112 18.522 23.9691 18.3538 23.8758L12.5062 20.6533C12.3564 20.5766 12.1918 20.5368 12.025 20.5368C11.8582 20.5368 11.6936 20.5766 11.5439 20.6533L5.69626 23.8758C5.52803 23.9691 5.33807 24.0112 5.148 23.9974C4.95793 23.9837 4.77539 23.9146 4.62114 23.7979C4.46689 23.6813 4.34712 23.5219 4.27547 23.3378C4.20382 23.1537 4.18316 22.9524 4.21585 22.7566L5.34466 15.8677C5.37327 15.6998 5.36117 15.5272 5.30946 15.3654C5.25775 15.2036 5.16807 15.0579 5.04858 14.9415L0.311261 10.1752C0.171107 10.0365 0.0725438 9.85833 0.02751 9.66235C-0.0175239 9.46638 -0.00709576 9.26099 0.0575309 9.07107C0.122158 8.88116 0.23821 8.71485 0.39163 8.59231C0.54505 8.46977 0.729255 8.39624 0.921931 8.38064L7.41724 7.37722C7.58119 7.35828 7.73752 7.29487 7.87064 7.1933C8.00376 7.09172 8.10903 6.95554 8.17595 6.79832L11.1183 0.604107C11.1984 0.423701 11.3263 0.270962 11.487 0.16392C11.6477 0.0568778 11.8344 0 12.025 0C12.2157 0 12.4024 0.0568778 12.563 0.16392C12.7237 0.270962 12.8516 0.423701 12.9318 0.604107Z" fill="#3083FF"/>
<path d="M12.5435 5.3524L14.2599 8.96569C14.2989 9.0574 14.3603 9.13684 14.438 9.19609C14.5156 9.25534 14.6068 9.29233 14.7025 9.30338L18.4914 9.88871C18.6011 9.90341 18.7045 9.95036 18.7896 10.0241C18.8747 10.0978 18.9379 10.1952 18.9719 10.305C19.0058 10.4148 19.0091 10.5323 18.9814 10.644C18.9537 10.7556 18.896 10.8568 18.8152 10.9356L16.0842 13.7609C16.0145 13.8288 15.9622 13.9138 15.932 14.0082C15.9018 14.1025 15.8948 14.2033 15.9115 14.3012L16.5699 18.2747C16.589 18.3889 16.577 18.5063 16.5352 18.6137C16.4934 18.7211 16.4235 18.8141 16.3335 18.8821C16.2435 18.9502 16.1371 18.9905 16.0262 18.9985C15.9153 19.0065 15.8045 18.982 15.7064 18.9276L12.2953 17.0478C12.2079 17.003 12.1119 16.9798 12.0146 16.9798C11.9173 16.9798 11.8213 17.003 11.7339 17.0478L8.32282 18.9276C8.22468 18.982 8.11387 19.0065 8.003 18.9985C7.89213 18.9905 7.78564 18.9502 7.69566 18.8821C7.60568 18.8141 7.53582 18.7211 7.49403 18.6137C7.45223 18.5063 7.44018 18.3889 7.45924 18.2747L8.11772 14.2562C8.13441 14.1582 8.12735 14.0575 8.09718 13.9631C8.06702 13.8688 8.01471 13.7838 7.945 13.7159L5.18157 10.9356C5.09981 10.8546 5.04232 10.7507 5.01605 10.6364C4.98978 10.5221 4.99586 10.4022 5.03356 10.2915C5.07126 10.1807 5.13896 10.0837 5.22845 10.0122C5.31795 9.9407 5.4254 9.89781 5.53779 9.88871L9.32672 9.30338C9.42236 9.29233 9.51355 9.25534 9.59121 9.19609C9.66886 9.13684 9.73027 9.0574 9.7693 8.96569L11.4857 5.3524C11.5324 5.24716 11.607 5.15806 11.7008 5.09562C11.7945 5.03318 11.9034 5 12.0146 5C12.1258 5 12.2347 5.03318 12.3284 5.09562C12.4222 5.15806 12.4968 5.24716 12.5435 5.3524Z" fill="#3083FF"/>
</svg>
