<svg width="24" height="25" viewBox="0 0 24 25" fill="none" xmlns="http://www.w3.org/2000/svg">
<path d="M21.5612 8.06934C21.3419 7.13184 20.6472 6.38965 19.8062 6.15527C18.234 5.68652 12.0183 5.68652 12.0183 5.68652C12.0183 5.68652 5.766 5.68652 4.19378 6.15527C3.35283 6.38965 2.65814 7.13184 2.43876 8.06934C2 9.70996 2 13.2256 2 13.2256C2 13.2256 2 16.7021 2.43876 18.3818C2.65814 19.3193 3.35283 20.0225 4.19378 20.2568C5.766 20.6865 12.0183 20.6865 12.0183 20.6865C12.0183 20.6865 18.234 20.6865 19.8062 20.2568C20.6472 20.0225 21.3419 19.3193 21.5612 18.3818C22 16.7021 22 13.2256 22 13.2256C22 13.2256 22 9.70996 21.5612 8.06934ZM9.97075 16.3896V10.0615L15.1627 13.2256L9.97075 16.3896Z" fill="white"/>
</svg>
